<svg xmlns="http://www.w3.org/2000/svg" xmlns:xlink="http://www.w3.org/1999/xlink" width="1080" zoomAndPan="magnify" viewBox="0 0 810 809.999993" height="1080" preserveAspectRatio="xMidYMid meet" version="1.0"><path fill="#ff2cb6" d="M 405 -0.0429688 C 181.289062 -0.0429688 -0.0429688 181.289062 -0.0429688 405 C -0.0429688 628.710938 181.289062 810.042969 405 810.042969 C 628.710938 810.042969 810.042969 628.710938 810.042969 405 C 810.042969 181.289062 628.710938 -0.0429688 405 -0.0429688 Z M 664.550781 460.148438 C 639.671875 583.503906 532.90625 676.238281 405 676.238281 C 258.597656 676.238281 139.949219 554.78125 139.949219 404.976562 C 139.949219 255.175781 258.621094 133.71875 405 133.71875 C 461.695312 133.71875 514.257812 151.945312 557.386719 183.035156 C 574.136719 195.097656 576.058594 219.3125 561.476562 233.917969 L 534.300781 261.097656 C 523.054688 272.34375 505.488281 274.042969 492.164062 265.339844 C 467.152344 249.011719 437.457031 239.554688 405.574219 239.554688 C 316.6875 239.554688 244.636719 313.105469 244.636719 403.851562 C 244.636719 494.617188 316.6875 568.171875 405.574219 568.171875 C 475.105469 568.171875 534.320312 523.140625 556.859375 460.105469 L 440.574219 460.105469 C 424.332031 460.105469 411.1875 446.957031 411.1875 430.71875 L 411.1875 385.933594 C 411.1875 369.691406 424.332031 356.546875 440.574219 356.546875 L 665.832031 356.546875 C 668.59375 372.253906 670.050781 388.429688 670.050781 404.957031 C 670.050781 423.914062 668.171875 442.363281 664.550781 460.148438 Z M 664.550781 460.148438 " fill-opacity="1" fill-rule="nonzero"/><path fill="#ffffff" d="M 440.574219 356.589844 C 424.332031 356.589844 411.1875 369.738281 411.1875 385.976562 L 411.1875 430.761719 C 411.1875 447.003906 424.332031 460.148438 440.574219 460.148438 L 556.8125 460.148438 C 534.300781 523.1875 475.0625 568.214844 405.53125 568.214844 C 316.640625 568.214844 244.589844 494.660156 244.589844 403.894531 C 244.589844 313.152344 316.640625 239.597656 405.53125 239.597656 C 437.414062 239.597656 467.109375 249.054688 492.121094 265.382812 C 505.445312 274.085938 523.007812 272.386719 534.253906 261.140625 L 561.433594 233.964844 C 576.035156 219.359375 574.09375 195.140625 557.34375 183.078125 C 514.238281 152.011719 461.671875 133.761719 404.957031 133.761719 C 258.554688 133.761719 139.90625 255.21875 139.90625 405.023438 C 139.90625 554.824219 258.578125 676.28125 404.957031 676.28125 C 532.863281 676.28125 639.625 583.550781 664.503906 460.191406 C 668.105469 442.382812 670.007812 423.957031 670.007812 405.042969 C 670.007812 388.515625 668.546875 372.34375 665.785156 356.632812 L 440.574219 356.632812 Z M 440.574219 356.589844 " fill-opacity="1" fill-rule="nonzero"/></svg>