<?xml version="1.0" encoding="UTF-8" standalone="no"?>
<svg
   xmlns:dc="http://purl.org/dc/elements/1.1/"
   xmlns:cc="http://creativecommons.org/ns#"
   xmlns:rdf="http://www.w3.org/1999/02/22-rdf-syntax-ns#"
   xmlns:svg="http://www.w3.org/2000/svg"
   xmlns="http://www.w3.org/2000/svg"
   xmlns:sodipodi="http://sodipodi.sourceforge.net/DTD/sodipodi-0.dtd"
   xmlns:inkscape="http://www.inkscape.org/namespaces/inkscape"
   width="983.49213"
   zoomAndPan="magnify"
   viewBox="0 0 737.61909 132.73828"
   height="176.98438"
   preserveAspectRatio="xMidYMid meet"
   version="1.0"
   id="svg91"
   sodipodi:docname="lifeness_notag.svg"
   inkscape:version="1.0.2-2 (e86c870879, 2021-01-15)">
  <metadata
     id="metadata95">
    <rdf:RDF>
      <cc:Work
         rdf:about="">
        <dc:format>image/svg+xml</dc:format>
        <dc:type
           rdf:resource="http://purl.org/dc/dcmitype/StillImage" />
        <dc:title></dc:title>
      </cc:Work>
    </rdf:RDF>
  </metadata>
  <sodipodi:namedview
     pagecolor="#ffffff"
     bordercolor="#666666"
     borderopacity="1"
     objecttolerance="10"
     gridtolerance="10"
     guidetolerance="10"
     inkscape:pageopacity="0"
     inkscape:pageshadow="2"
     inkscape:window-width="2560"
     inkscape:window-height="1506"
     id="namedview93"
     showgrid="false"
     fit-margin-top="0"
     fit-margin-left="0"
     fit-margin-right="0"
     fit-margin-bottom="0"
     inkscape:zoom="1.451"
     inkscape:cx="500"
     inkscape:cy="87.984375"
     inkscape:window-x="-11"
     inkscape:window-y="-11"
     inkscape:window-maximized="1"
     inkscape:current-layer="svg91" />
  <defs
     id="defs7">
    <g
       id="g2" />
    <clipPath
       id="6a316d0943">
      <path
         d="m 0,66 h 162.75 v 75.75 H 0 Z m 0,0"
         clip-rule="nonzero"
         id="path4" />
    </clipPath>
  </defs>
  <g
     fill="#e41d97"
     fill-opacity="1"
     id="g15"
     transform="translate(0,-9.011719)">
    <g
       transform="translate(198.81489,134.85641)"
       id="g13">
      <g
         id="g11">
        <path
           d="M 8.625,0 V -123.6875 H 34.09375 V 0 Z m 0,0"
           id="path9" />
      </g>
    </g>
  </g>
  <g
     fill="#e41d97"
     fill-opacity="1"
     id="g23"
     transform="translate(0,-9.011719)">
    <g
       transform="translate(234.34239,134.85641)"
       id="g21">
      <g
         id="g19">
        <path
           d="m 11.0625,-114.90625 c 2.976562,-2.97656 6.53125,-4.46875 10.65625,-4.46875 4.125,0 7.671875,1.49219 10.640625,4.46875 2.96875,2.96875 4.453125,6.51562 4.453125,10.64062 0,4.11719 -1.484375,7.664068 -4.453125,10.64063 -2.96875,2.96875 -6.515625,4.453125 -10.640625,4.453125 -4.125,0 -7.679688,-1.484375 -10.65625,-4.453125 -2.96875,-2.976562 -4.453125,-6.52344 -4.453125,-10.64063 0,-4.125 1.484375,-7.67187 4.453125,-10.64062 z m -2.4375,41.125 V 0 h 25.46875 v -73.78125 z m 0,0"
           id="path17" />
      </g>
    </g>
  </g>
  <g
     fill="#e41d97"
     fill-opacity="1"
     id="g31"
     transform="translate(0,-9.011719)">
    <g
       transform="translate(270.58906,134.85641)"
       id="g29">
      <g
         id="g27">
        <path
           d="m 12.9375,-73.78125 v -15.6875 c 0.101562,-11.01953 2.691406,-19.83594 7.765625,-26.45313 5.082031,-6.61328 12.132813,-9.92187 21.15625,-9.92187 3.832031,0 7.5,0.55469 11,1.65625 3.5,1.09375 6.015625,2.21875 7.546875,3.375 l 2.453125,1.57812 L 53.9375,-101.25 c -2.304688,-1.34375 -4.84375,-2.01563 -7.625,-2.01563 -3.167969,0 -5.277344,1.07813 -6.328125,3.23438 -1.054687,2.15625 -1.578125,5.921875 -1.578125,11.296875 V -73.78125 H 55.375 v 19.421875 H 38.40625 V 0 H 12.9375 V -54.359375 H 2.296875 V -73.78125 Z m 0,0"
           id="path25" />
      </g>
    </g>
  </g>
  <g
     fill="#e41d97"
     fill-opacity="1"
     id="g39"
     transform="translate(0,-9.011719)">
    <g
       transform="translate(317.33577,134.85641)"
       id="g37">
      <g
         id="g35">
        <path
           d="M 83.28125,-33.375 H 29.765625 c 0,5.1875 1.675781,9.027344 5.03125,11.515625 3.363281,2.492187 7.007813,3.734375 10.9375,3.734375 4.125,0 7.382813,-0.550781 9.78125,-1.65625 2.394531,-1.101562 5.128906,-3.285156 8.203125,-6.546875 l 18.40625,9.21875 C 74.457031,-4.265625 61.707031,2.15625 43.875,2.15625 32.75,2.15625 23.207031,-1.65625 15.25,-9.28125 7.289062,-16.90625 3.3125,-26.082031 3.3125,-36.8125 c 0,-10.738281 3.976562,-19.941406 11.9375,-27.609375 7.957031,-7.675781 17.5,-11.515625 28.625,-11.515625 11.695312,0 21.210938,3.382812 28.546875,10.140625 7.332031,6.761719 11,16.421875 11,28.984375 0,1.71875 -0.04687,2.867188 -0.140625,3.4375 z M 30.484375,-47.46875 H 58.53125 C 57.957031,-51.300781 56.445312,-54.25 54,-56.3125 c -2.4375,-2.0625 -5.574219,-3.09375 -9.40625,-3.09375 -4.21875,0 -7.578125,1.105469 -10.078125,3.3125 -2.492187,2.210938 -3.835937,5.085938 -4.03125,8.625 z m 0,0"
           id="path33" />
      </g>
    </g>
  </g>
  <g
     fill="#e41d97"
     fill-opacity="1"
     id="g47"
     transform="translate(0,-9.011719)">
    <g
       transform="translate(396.87708,134.85641)"
       id="g45">
      <g
         id="g43">
        <path
           d="m 25.03125,-30.78125 c 4.601562,0 8.507812,1.609375 11.71875,4.828125 3.207031,3.210937 4.8125,7.117187 4.8125,11.71875 0,4.5 -1.605469,8.359375 -4.8125,11.578125 -3.210938,3.207031 -7.117188,4.8125 -11.71875,4.8125 -4.511719,0 -8.375,-1.605469 -11.59375,-4.8125 C 10.226562,-5.875 8.625,-9.734375 8.625,-14.234375 c 0,-4.601563 1.601562,-8.507813 4.8125,-11.71875 3.21875,-3.21875 7.082031,-4.828125 11.59375,-4.828125 z m 0,0"
           id="path41" />
      </g>
    </g>
  </g>
  <g
     fill="#e41d97"
     fill-opacity="1"
     id="g55"
     transform="translate(0,-9.011719)">
    <g
       transform="translate(439.88405,134.85641)"
       id="g53">
      <g
         id="g51">
        <path
           d="m 8.625,0 v -73.78125 h 25.46875 v 7.765625 H 34.375 c 6.613281,-6.613281 13.660156,-9.921875 21.140625,-9.921875 3.644531,0 7.265625,0.480469 10.859375,1.4375 3.59375,0.960938 7.039062,2.445312 10.34375,4.453125 3.3125,2.011719 6,4.867187 8.0625,8.5625 2.0625,3.6875 3.09375,7.980469 3.09375,12.875 V 0 H 62.421875 v -41.703125 c 0,-3.84375 -1.226563,-7.203125 -3.671875,-10.078125 -2.4375,-2.875 -5.625,-4.3125 -9.5625,-4.3125 -3.835938,0 -7.308594,1.492188 -10.421875,4.46875 -3.117187,2.96875 -4.671875,6.277344 -4.671875,9.921875 V 0 Z m 0,0"
           id="path49" />
      </g>
    </g>
  </g>
  <g
     fill="#e41d97"
     fill-opacity="1"
     id="g63"
     transform="translate(0,-9.011719)">
    <g
       transform="translate(527.76785,134.85641)"
       id="g61">
      <g
         id="g59">
        <path
           d="M 83.28125,-33.375 H 29.765625 c 0,5.1875 1.675781,9.027344 5.03125,11.515625 3.363281,2.492187 7.007813,3.734375 10.9375,3.734375 4.125,0 7.382813,-0.550781 9.78125,-1.65625 2.394531,-1.101562 5.128906,-3.285156 8.203125,-6.546875 l 18.40625,9.21875 C 74.457031,-4.265625 61.707031,2.15625 43.875,2.15625 32.75,2.15625 23.207031,-1.65625 15.25,-9.28125 7.289062,-16.90625 3.3125,-26.082031 3.3125,-36.8125 c 0,-10.738281 3.976562,-19.941406 11.9375,-27.609375 7.957031,-7.675781 17.5,-11.515625 28.625,-11.515625 11.695312,0 21.210938,3.382812 28.546875,10.140625 7.332031,6.761719 11,16.421875 11,28.984375 0,1.71875 -0.04687,2.867188 -0.140625,3.4375 z M 30.484375,-47.46875 H 58.53125 C 57.957031,-51.300781 56.445312,-54.25 54,-56.3125 c -2.4375,-2.0625 -5.574219,-3.09375 -9.40625,-3.09375 -4.21875,0 -7.578125,1.105469 -10.078125,3.3125 -2.492187,2.210938 -3.835937,5.085938 -4.03125,8.625 z m 0,0"
           id="path57" />
      </g>
    </g>
  </g>
  <g
     fill="#e41d97"
     fill-opacity="1"
     id="g71"
     transform="translate(0,-9.011719)">
    <g
       transform="translate(607.30917,134.85641)"
       id="g69">
      <g
         id="g67">
        <path
           d="m 40.703125,-75.9375 c 4.21875,0 8.390625,0.480469 12.515625,1.4375 4.125,0.960938 7.191406,1.917969 9.203125,2.875 L 65.4375,-70.1875 57.09375,-53.5 c -5.75,-3.070312 -11.214844,-4.609375 -16.390625,-4.609375 -2.875,0 -4.914063,0.3125 -6.109375,0.9375 -1.199219,0.625 -1.796875,1.804687 -1.796875,3.53125 0,0.375 0.04687,0.757813 0.140625,1.140625 0.09375,0.386719 0.28125,0.746094 0.5625,1.078125 0.289062,0.335937 0.554688,0.621094 0.796875,0.859375 0.238281,0.242188 0.644531,0.507812 1.21875,0.796875 0.582031,0.292969 1.039063,0.511719 1.375,0.65625 0.332031,0.136719 0.882813,0.351563 1.65625,0.640625 0.769531,0.292969 1.34375,0.511719 1.71875,0.65625 0.382813,0.136719 1.03125,0.351562 1.9375,0.640625 0.914063,0.28125 1.613281,0.476563 2.09375,0.578125 2.96875,0.855469 5.554687,1.8125 7.765625,2.875 2.207031,1.054688 4.53125,2.492188 6.96875,4.3125 2.445312,1.824219 4.34375,4.125 5.6875,6.90625 1.34375,2.78125 2.015625,5.945312 2.015625,9.484375 0,16.78125 -11.652344,25.171875 -34.953125,25.171875 C 26.507812,2.15625 21.5,1.34375 16.75,-0.28125 12.007812,-1.914062 8.582031,-3.546875 6.46875,-5.171875 l -3.15625,-2.59375 10.34375,-17.40625 c 0.769531,0.679687 1.773438,1.46875 3.015625,2.375 1.25,0.90625 3.503906,2.152344 6.765625,3.734375 3.257812,1.585938 6.09375,2.375 8.5,2.375 5.269531,0 7.90625,-1.769531 7.90625,-5.3125 0,-1.632812 -0.671875,-2.90625 -2.015625,-3.8125 -1.34375,-0.914062 -3.625,-1.945312 -6.84375,-3.09375 -3.210937,-1.15625 -5.726563,-2.210938 -7.546875,-3.171875 -4.59375,-2.394531 -8.234375,-5.101563 -10.921875,-8.125 -2.6875,-3.019531 -4.03125,-7.019531 -4.03125,-12 0,-7.476563 2.898437,-13.300781 8.703125,-17.46875 5.800781,-4.175781 13.640625,-6.265625 23.515625,-6.265625 z m 0,0"
           id="path65" />
      </g>
    </g>
  </g>
  <g
     fill="#e41d97"
     fill-opacity="1"
     id="g79"
     transform="translate(0,-9.011719)">
    <g
       transform="translate(670.88471,134.85641)"
       id="g77">
      <g
         id="g75">
        <path
           d="m 40.703125,-75.9375 c 4.21875,0 8.390625,0.480469 12.515625,1.4375 4.125,0.960938 7.191406,1.917969 9.203125,2.875 L 65.4375,-70.1875 57.09375,-53.5 c -5.75,-3.070312 -11.214844,-4.609375 -16.390625,-4.609375 -2.875,0 -4.914063,0.3125 -6.109375,0.9375 -1.199219,0.625 -1.796875,1.804687 -1.796875,3.53125 0,0.375 0.04687,0.757813 0.140625,1.140625 0.09375,0.386719 0.28125,0.746094 0.5625,1.078125 0.289062,0.335937 0.554688,0.621094 0.796875,0.859375 0.238281,0.242188 0.644531,0.507812 1.21875,0.796875 0.582031,0.292969 1.039063,0.511719 1.375,0.65625 0.332031,0.136719 0.882813,0.351563 1.65625,0.640625 0.769531,0.292969 1.34375,0.511719 1.71875,0.65625 0.382813,0.136719 1.03125,0.351562 1.9375,0.640625 0.914063,0.28125 1.613281,0.476563 2.09375,0.578125 2.96875,0.855469 5.554687,1.8125 7.765625,2.875 2.207031,1.054688 4.53125,2.492188 6.96875,4.3125 2.445312,1.824219 4.34375,4.125 5.6875,6.90625 1.34375,2.78125 2.015625,5.945312 2.015625,9.484375 0,16.78125 -11.652344,25.171875 -34.953125,25.171875 C 26.507812,2.15625 21.5,1.34375 16.75,-0.28125 12.007812,-1.914062 8.582031,-3.546875 6.46875,-5.171875 l -3.15625,-2.59375 10.34375,-17.40625 c 0.769531,0.679687 1.773438,1.46875 3.015625,2.375 1.25,0.90625 3.503906,2.152344 6.765625,3.734375 3.257812,1.585938 6.09375,2.375 8.5,2.375 5.269531,0 7.90625,-1.769531 7.90625,-5.3125 0,-1.632812 -0.671875,-2.90625 -2.015625,-3.8125 -1.34375,-0.914062 -3.625,-1.945312 -6.84375,-3.09375 -3.210937,-1.15625 -5.726563,-2.210938 -7.546875,-3.171875 -4.59375,-2.394531 -8.234375,-5.101563 -10.921875,-8.125 -2.6875,-3.019531 -4.03125,-7.019531 -4.03125,-12 0,-7.476563 2.898437,-13.300781 8.703125,-17.46875 5.800781,-4.175781 13.640625,-6.265625 23.515625,-6.265625 z m 0,0"
           id="path73" />
      </g>
    </g>
  </g>
  <path
     fill="#e41d97"
     d="M 138.47266,69.394531 C 123.37109,89.261719 101.89063,100.91406 80.496094,103.05859 L 116.67969,42.882812 C 116.39844,43.226562 93.867188,71.074219 77.089844,92.972661 75.234375,73.28125 81.015625,51.910156 94.773438,33.8125 110.27734,13.421875 132.50391,1.675781 154.46484,0 c 5.32813,22.28125 0.19141,48.105469 -15.99218,69.394531 z m 0,0"
     fill-opacity="1"
     fill-rule="nonzero"
     id="path81" />
  <path
     fill="#e669b4"
     d="M 40.996094,84.535156 C 49.304688,95.464841 61.125,101.88281 72.902344,103.05859 L 52.984375,69.945312 C 53.136719,70.136719 65.539062,85.457031 74.777344,97.507811 75.792969,86.675781 72.613281,74.90625 65.042969,64.945312 56.515625,53.722656 44.28125,47.257812 32.191406,46.335937 c -2.9375,12.265625 -0.109375,26.480469 8.804688,38.199219 z m 0,0"
     fill-opacity="1"
     fill-rule="nonzero"
     id="path83" />
  <g
     clip-path="url(#6a316d0943)"
     id="g87"
     transform="translate(0,-9.011719)">
    <path
       fill="#bf2594"
       d="m 162.97266,98.148438 c 0,24.265622 -36.48047,43.929682 -81.484379,43.929682 C 36.480469,142.07812 0,122.41406 0,98.148438 0,85.816406 9.429688,74.664062 24.613281,66.691406 17.195312,72.859375 12.867188,80.265625 12.867188,88.234375 c 0,21.523435 31.566406,38.972655 70.5,38.972655 38.937502,0 70.503902,-17.44922 70.503902,-38.972655 0,-5.414063 -1.99609,-10.574219 -5.60937,-15.261719 9.27734,7.125 14.71094,15.808594 14.71094,25.175782 z m 0,0"
       fill-opacity="1"
       fill-rule="nonzero"
       id="path85" />
  </g>
  <path
     fill="#e41d97"
     d="m 87.128906,34.734375 c 0,0.539062 -0.02734,1.074218 -0.08203,1.609375 -0.05078,0.535156 -0.128906,1.070312 -0.234375,1.597656 -0.105469,0.527344 -0.238281,1.046875 -0.394531,1.5625 -0.15625,0.515625 -0.335938,1.019531 -0.542969,1.519531 -0.203125,0.496094 -0.433594,0.980469 -0.6875,1.457032 -0.253906,0.472656 -0.53125,0.933593 -0.828125,1.382812 -0.300781,0.445312 -0.621094,0.878906 -0.960937,1.292969 -0.339844,0.414062 -0.703126,0.8125 -1.082032,1.195312 -0.382812,0.378907 -0.777344,0.742188 -1.195312,1.082031 -0.414063,0.339844 -0.847656,0.660157 -1.292969,0.960938 -0.449219,0.296875 -0.910156,0.574219 -1.382813,0.828125 -0.476562,0.253906 -0.960937,0.484375 -1.457031,0.6875 -0.5,0.207031 -1.003906,0.386719 -1.519531,0.542969 -0.515625,0.15625 -1.035156,0.289062 -1.5625,0.394531 -0.527344,0.105469 -1.058594,0.183594 -1.597656,0.234375 -0.535156,0.05469 -1.070313,0.07813 -1.609375,0.07813 -0.535157,0 -1.074219,-0.02344 -1.609375,-0.07813 -0.535156,-0.05078 -1.066406,-0.128906 -1.59375,-0.234375 -0.527344,-0.105469 -1.050782,-0.238281 -1.5625,-0.394531 -0.515625,-0.15625 -1.023438,-0.335938 -1.519532,-0.542969 -0.496093,-0.203125 -0.984374,-0.433594 -1.457031,-0.6875 -0.476562,-0.253906 -0.9375,-0.53125 -1.382812,-0.828125 -0.449219,-0.300781 -0.878907,-0.621094 -1.296875,-0.960938 -0.414063,-0.339843 -0.8125,-0.703124 -1.191406,-1.082031 -0.382813,-0.382812 -0.742188,-0.78125 -1.082032,-1.195312 -0.34375,-0.414063 -0.664062,-0.847657 -0.960937,-1.292969 -0.300781,-0.449219 -0.578125,-0.910156 -0.828125,-1.382812 -0.253906,-0.476563 -0.484375,-0.960938 -0.691406,-1.457032 -0.207032,-0.5 -0.386719,-1.003906 -0.542969,-1.519531 -0.15625,-0.515625 -0.285157,-1.035156 -0.390625,-1.5625 -0.105469,-0.527344 -0.183594,-1.0625 -0.238282,-1.597656 -0.05078,-0.535157 -0.07812,-1.070313 -0.07812,-1.609375 0,-0.539063 0.02734,-1.074219 0.07812,-1.609375 0.05469,-0.535157 0.132813,-1.066407 0.238282,-1.59375 0.105468,-0.527344 0.234375,-1.050781 0.390625,-1.566407 0.15625,-0.511718 0.335937,-1.019531 0.542969,-1.515624 0.207031,-0.496094 0.4375,-0.984376 0.691406,-1.457032 0.25,-0.476562 0.527344,-0.9375 0.828125,-1.382812 0.296875,-0.449219 0.617187,-0.878906 0.960937,-1.296875 0.339844,-0.414063 0.699219,-0.8125 1.082032,-1.191407 0.378906,-0.382812 0.777343,-0.742187 1.191406,-1.085937 0.417968,-0.339844 0.847656,-0.660156 1.296875,-0.957031 0.445312,-0.300782 0.90625,-0.578125 1.382812,-0.832032 0.472657,-0.25 0.960938,-0.480468 1.457031,-0.6875 0.496094,-0.207031 1.003907,-0.386718 1.519532,-0.542968 0.511718,-0.15625 1.035156,-0.285156 1.5625,-0.390625 0.527344,-0.105469 1.058594,-0.183594 1.59375,-0.238281 0.535156,-0.05078 1.074218,-0.07813 1.609375,-0.07813 0.539062,0 1.074219,0.02734 1.609375,0.07813 0.539062,0.05469 1.070312,0.132812 1.597656,0.238281 0.527344,0.105469 1.046875,0.234375 1.5625,0.390625 0.515625,0.15625 1.019531,0.335937 1.519531,0.542968 0.496094,0.207032 0.980469,0.4375 1.457031,0.691407 0.472657,0.25 0.933594,0.527343 1.382813,0.828125 0.445313,0.296875 0.878906,0.617187 1.292969,0.957031 0.417968,0.34375 0.8125,0.703125 1.195312,1.085937 0.378906,0.378907 0.742188,0.777344 1.082032,1.191407 0.339843,0.417969 0.660156,0.847656 0.960937,1.296875 0.296875,0.445312 0.574219,0.90625 0.828125,1.382812 0.253906,0.472656 0.484375,0.960938 0.6875,1.457032 0.207031,0.496093 0.386719,1.003906 0.542969,1.515624 0.15625,0.515626 0.289062,1.039063 0.394531,1.566407 0.105469,0.527343 0.183594,1.058593 0.234375,1.59375 0.05469,0.535156 0.08203,1.070312 0.08203,1.609375 z m 0,0"
     fill-opacity="1"
     fill-rule="nonzero"
     id="path89" />
</svg>
