<?xml version="1.0" encoding="UTF-8" standalone="no"?>
<svg
   xmlns:dc="http://purl.org/dc/elements/1.1/"
   xmlns:cc="http://creativecommons.org/ns#"
   xmlns:rdf="http://www.w3.org/1999/02/22-rdf-syntax-ns#"
   xmlns:svg="http://www.w3.org/2000/svg"
   xmlns="http://www.w3.org/2000/svg"
   xmlns:sodipodi="http://sodipodi.sourceforge.net/DTD/sodipodi-0.dtd"
   xmlns:inkscape="http://www.inkscape.org/namespaces/inkscape"
   width="999.64899"
   zoomAndPan="magnify"
   viewBox="0 0 749.73674 264.0028"
   height="352.00375"
   preserveAspectRatio="xMidYMid meet"
   version="1.0"
   id="svg266"
   sodipodi:docname="logo_small.svg"
   inkscape:version="1.0.2-2 (e86c870879, 2021-01-15)">
  <metadata
     id="metadata270">
    <rdf:RDF>
      <cc:Work
         rdf:about="">
        <dc:format>image/svg+xml</dc:format>
        <dc:type
           rdf:resource="http://purl.org/dc/dcmitype/StillImage" />
        <dc:title></dc:title>
      </cc:Work>
    </rdf:RDF>
  </metadata>
  <sodipodi:namedview
     pagecolor="#ffffff"
     bordercolor="#666666"
     borderopacity="1"
     objecttolerance="10"
     gridtolerance="10"
     guidetolerance="10"
     inkscape:pageopacity="0"
     inkscape:pageshadow="2"
     inkscape:window-width="2560"
     inkscape:window-height="1506"
     id="namedview268"
     showgrid="false"
     fit-margin-top="0"
     fit-margin-left="0"
     fit-margin-right="0"
     fit-margin-bottom="0"
     inkscape:zoom="1.451"
     inkscape:cx="500"
     inkscape:cy="180.06003"
     inkscape:window-x="-11"
     inkscape:window-y="-11"
     inkscape:window-maximized="1"
     inkscape:current-layer="svg266" />
  <defs
     id="defs10">
    <g
       id="g2" />
    <clipPath
       id="185292ba4e">
      <path
         d="m 78,14.957031 h 82 V 120 H 78 Z m 0,0"
         clip-rule="nonzero"
         id="path4" />
    </clipPath>
    <clipPath
       id="13ed8ba791">
      <path
         d="m 0,73 h 165.42187 v 76.88281 H 0 Z m 0,0"
         clip-rule="nonzero"
         id="path7" />
    </clipPath>
  </defs>
  <g
     fill="#e41d97"
     fill-opacity="1"
     id="g18"
     transform="translate(0,-14.954978)">
    <g
       transform="translate(202.07716,142.87685)"
       id="g16">
      <g
         id="g14">
        <path
           d="M 8.765625,0 V -125.73438 H 34.65625 V 0 Z m 0,0"
           id="path12" />
      </g>
    </g>
  </g>
  <g
     fill="#e41d97"
     fill-opacity="1"
     id="g26"
     transform="translate(0,-14.954978)">
    <g
       transform="translate(238.18761,142.87685)"
       id="g24">
      <g
         id="g22">
        <path
           d="m 11.25,-116.8125 c 3.03125,-3.01953 6.640625,-4.53125 10.828125,-4.53125 4.1875,0 7.789063,1.51172 10.8125,4.53125 3.019531,3.02344 4.53125,6.63281 4.53125,10.82812 0,4.1875 -1.511719,7.792974 -4.53125,10.812505 -3.023437,3.023437 -6.625,4.53125 -10.8125,4.53125 -4.1875,0 -7.796875,-1.507813 -10.828125,-4.53125 -3.023438,-3.019531 -4.53125,-6.625005 -4.53125,-10.812505 0,-4.19531 1.507812,-7.80468 4.53125,-10.82812 z M 8.765625,-75 V 0 H 34.65625 v -75 z m 0,0"
           id="path20" />
      </g>
    </g>
  </g>
  <g
     fill="#e41d97"
     fill-opacity="1"
     id="g34"
     transform="translate(0,-14.954978)">
    <g
       transform="translate(275.02904,142.87685)"
       id="g32">
      <g
         id="g30">
        <path
           d="m 13.15625,-75 v -15.9375 c 0.09375,-11.20703 2.722656,-20.17188 7.890625,-26.89063 5.164063,-6.72656 12.332031,-10.09375 21.5,-10.09375 3.894531,0 7.617187,0.5625 11.171875,1.6875 3.5625,1.11719 6.125,2.25782 7.6875,3.42188 l 2.484375,1.60937 -9.0625,18.28125 c -2.34375,-1.36328 -4.929687,-2.04687 -7.75,-2.04687 -3.21875,0 -5.367187,1.10156 -6.4375,3.29687 -1.074219,2.187505 -1.609375,6.011724 -1.609375,11.468755 V -75 h 17.25 v 19.734375 h -17.25 V 0 h -25.875 V -55.265625 H 2.34375 V -75 Z m 0,0"
           id="path28" />
      </g>
    </g>
  </g>
  <g
     fill="#e41d97"
     fill-opacity="1"
     id="g42"
     transform="translate(0,-14.954978)">
    <g
       transform="translate(322.5428,142.87685)"
       id="g40">
      <g
         id="g38">
        <path
           d="M 84.65625,-33.921875 H 30.265625 c 0,5.261719 1.703125,9.164063 5.109375,11.703125 3.414062,2.53125 7.125,3.796875 11.125,3.796875 4.1875,0 7.5,-0.554687 9.9375,-1.671875 2.4375,-1.125 5.210938,-3.34375 8.328125,-6.65625 l 18.71875,9.359375 C 75.679688,-4.335938 62.71875,2.1875 44.59375,2.1875 c -11.3125,0 -21.015625,-3.867188 -29.109375,-11.609375 -8.085937,-7.75 -12.125,-17.082031 -12.125,-28 0,-10.914063 4.039063,-20.269531 12.125,-28.0625 8.09375,-7.800781 17.796875,-11.703125 29.109375,-11.703125 11.882812,0 21.554688,3.4375 29.015625,10.3125 7.457031,6.867188 11.1875,16.683594 11.1875,29.453125 0,1.75 -0.04687,2.917969 -0.140625,3.5 z M 31,-48.25 h 28.5 c -0.585938,-3.894531 -2.121094,-6.890625 -4.609375,-8.984375 -2.480469,-2.09375 -5.667969,-3.140625 -9.5625,-3.140625 -4.292969,0 -7.710937,1.121094 -10.25,3.359375 C 32.546875,-54.773438 31.1875,-51.851562 31,-48.25 Z m 0,0"
           id="path36" />
      </g>
    </g>
  </g>
  <g
     fill="#e41d97"
     fill-opacity="1"
     id="g50"
     transform="translate(0,-14.954978)">
    <g
       transform="translate(403.38927,142.87685)"
       id="g48">
      <g
         id="g46">
        <path
           d="m 25.4375,-31.28125 c 4.675781,0 8.644531,1.636719 11.90625,4.90625 3.269531,3.261719 4.90625,7.230469 4.90625,11.90625 0,4.574219 -1.636719,8.496094 -4.90625,11.765625 C 34.082031,0.554688 30.113281,2.1875 25.4375,2.1875 c -4.585938,0 -8.511719,-1.632812 -11.78125,-4.890625 -3.261719,-3.269531 -4.890625,-7.191406 -4.890625,-11.765625 0,-4.675781 1.628906,-8.644531 4.890625,-11.90625 3.269531,-3.269531 7.195312,-4.90625 11.78125,-4.90625 z m 0,0"
           id="path44" />
      </g>
    </g>
  </g>
  <g
     fill="#e41d97"
     fill-opacity="1"
     id="g58"
     transform="translate(0,-14.954978)">
    <g
       transform="translate(447.10192,142.87685)"
       id="g56">
      <g
         id="g54">
        <path
           d="M 8.765625,0 V -75 H 34.65625 v 7.890625 h 0.28125 c 6.726562,-6.71875 13.894531,-10.078125 21.5,-10.078125 3.695312,0 7.375,0.492188 11.03125,1.46875 3.65625,0.96875 7.164062,2.480469 10.53125,4.53125 3.363281,2.042969 6.09375,4.9375 8.1875,8.6875 2.09375,3.75 3.140625,8.109375 3.140625,13.078125 V 0 h -25.875 v -42.40625 c 0,-3.894531 -1.246094,-7.300781 -3.734375,-10.21875 C 57.238281,-55.550781 54,-57.015625 50,-57.015625 c -3.898438,0 -7.429688,1.511719 -10.59375,4.53125 -3.167969,3.023437 -4.75,6.382813 -4.75,10.078125 V 0 Z m 0,0"
           id="path52" />
      </g>
    </g>
  </g>
  <g
     fill="#e41d97"
     fill-opacity="1"
     id="g66"
     transform="translate(0,-14.954978)">
    <g
       transform="translate(536.42777,142.87685)"
       id="g64">
      <g
         id="g62">
        <path
           d="M 84.65625,-33.921875 H 30.265625 c 0,5.261719 1.703125,9.164063 5.109375,11.703125 3.414062,2.53125 7.125,3.796875 11.125,3.796875 4.1875,0 7.5,-0.554687 9.9375,-1.671875 2.4375,-1.125 5.210938,-3.34375 8.328125,-6.65625 l 18.71875,9.359375 C 75.679688,-4.335938 62.71875,2.1875 44.59375,2.1875 c -11.3125,0 -21.015625,-3.867188 -29.109375,-11.609375 -8.085937,-7.75 -12.125,-17.082031 -12.125,-28 0,-10.914063 4.039063,-20.269531 12.125,-28.0625 8.09375,-7.800781 17.796875,-11.703125 29.109375,-11.703125 11.882812,0 21.554688,3.4375 29.015625,10.3125 7.457031,6.867188 11.1875,16.683594 11.1875,29.453125 0,1.75 -0.04687,2.917969 -0.140625,3.5 z M 31,-48.25 h 28.5 c -0.585938,-3.894531 -2.121094,-6.890625 -4.609375,-8.984375 -2.480469,-2.09375 -5.667969,-3.140625 -9.5625,-3.140625 -4.292969,0 -7.710937,1.121094 -10.25,3.359375 C 32.546875,-54.773438 31.1875,-51.851562 31,-48.25 Z m 0,0"
           id="path60" />
      </g>
    </g>
  </g>
  <g
     fill="#e41d97"
     fill-opacity="1"
     id="g74"
     transform="translate(0,-14.954978)">
    <g
       transform="translate(617.27425,142.87685)"
       id="g72">
      <g
         id="g70">
        <path
           d="m 41.375,-77.1875 c 4.289062,0 8.53125,0.492188 12.71875,1.46875 4.1875,0.96875 7.304688,1.9375 9.359375,2.90625 l 3.0625,1.46875 -8.46875,16.953125 C 52.191406,-57.503906 46.632812,-59.0625 41.375,-59.0625 c -2.929688,0 -5,0.320312 -6.21875,0.953125 -1.21875,0.625 -1.828125,1.820313 -1.828125,3.578125 0,0.386719 0.04687,0.777344 0.140625,1.171875 0.101562,0.386719 0.300781,0.75 0.59375,1.09375 0.289062,0.34375 0.554688,0.636719 0.796875,0.875 0.25,0.242187 0.664063,0.511719 1.25,0.8125 0.582031,0.292969 1.046875,0.511719 1.390625,0.65625 0.34375,0.148437 0.90625,0.367187 1.6875,0.65625 0.78125,0.292969 1.363281,0.511719 1.75,0.65625 0.382812,0.148437 1.039062,0.367187 1.96875,0.65625 0.925781,0.292969 1.632812,0.484375 2.125,0.578125 3.019531,0.886719 5.648438,1.867188 7.890625,2.9375 2.238281,1.0625 4.601563,2.523438 7.09375,4.375 2.488281,1.855469 4.414063,4.199219 5.78125,7.03125 1.363281,2.824219 2.046875,6.039062 2.046875,9.640625 C 67.84375,-6.335938 56,2.1875 32.3125,2.1875 c -5.367188,0 -10.460938,-0.828125 -15.28125,-2.484375 -4.824219,-1.65625 -8.308594,-3.3125 -10.453125,-4.96875 l -3.21875,-2.625 10.53125,-17.6875 c 0.78125,0.679687 1.800781,1.480469 3.0625,2.40625 1.269531,0.929687 3.5625,2.199219 6.875,3.8125 3.3125,1.605469 6.1875,2.40625 8.625,2.40625 5.363281,0 8.046875,-1.804687 8.046875,-5.421875 0,-1.65625 -0.683594,-2.941406 -2.046875,-3.859375 C 37.085938,-27.160156 34.769531,-28.207031 31.5,-29.375 c -3.261719,-1.175781 -5.820312,-2.253906 -7.671875,-3.234375 -4.679687,-2.4375 -8.382813,-5.1875 -11.109375,-8.25 -2.730469,-3.070313 -4.09375,-7.144531 -4.09375,-12.21875 0,-7.59375 2.945312,-13.507813 8.84375,-17.75 5.894531,-4.238281 13.863281,-6.359375 23.90625,-6.359375 z m 0,0"
           id="path68" />
      </g>
    </g>
  </g>
  <g
     fill="#e41d97"
     fill-opacity="1"
     id="g82"
     transform="translate(0,-14.954978)">
    <g
       transform="translate(681.89297,142.87685)"
       id="g80">
      <g
         id="g78">
        <path
           d="m 41.375,-77.1875 c 4.289062,0 8.53125,0.492188 12.71875,1.46875 4.1875,0.96875 7.304688,1.9375 9.359375,2.90625 l 3.0625,1.46875 -8.46875,16.953125 C 52.191406,-57.503906 46.632812,-59.0625 41.375,-59.0625 c -2.929688,0 -5,0.320312 -6.21875,0.953125 -1.21875,0.625 -1.828125,1.820313 -1.828125,3.578125 0,0.386719 0.04687,0.777344 0.140625,1.171875 0.101562,0.386719 0.300781,0.75 0.59375,1.09375 0.289062,0.34375 0.554688,0.636719 0.796875,0.875 0.25,0.242187 0.664063,0.511719 1.25,0.8125 0.582031,0.292969 1.046875,0.511719 1.390625,0.65625 0.34375,0.148437 0.90625,0.367187 1.6875,0.65625 0.78125,0.292969 1.363281,0.511719 1.75,0.65625 0.382812,0.148437 1.039062,0.367187 1.96875,0.65625 0.925781,0.292969 1.632812,0.484375 2.125,0.578125 3.019531,0.886719 5.648438,1.867188 7.890625,2.9375 2.238281,1.0625 4.601563,2.523438 7.09375,4.375 2.488281,1.855469 4.414063,4.199219 5.78125,7.03125 1.363281,2.824219 2.046875,6.039062 2.046875,9.640625 C 67.84375,-6.335938 56,2.1875 32.3125,2.1875 c -5.367188,0 -10.460938,-0.828125 -15.28125,-2.484375 -4.824219,-1.65625 -8.308594,-3.3125 -10.453125,-4.96875 l -3.21875,-2.625 10.53125,-17.6875 c 0.78125,0.679687 1.800781,1.480469 3.0625,2.40625 1.269531,0.929687 3.5625,2.199219 6.875,3.8125 3.3125,1.605469 6.1875,2.40625 8.625,2.40625 5.363281,0 8.046875,-1.804687 8.046875,-5.421875 0,-1.65625 -0.683594,-2.941406 -2.046875,-3.859375 C 37.085938,-27.160156 34.769531,-28.207031 31.5,-29.375 c -3.261719,-1.175781 -5.820312,-2.253906 -7.671875,-3.234375 -4.679687,-2.4375 -8.382813,-5.1875 -11.109375,-8.25 -2.730469,-3.070313 -4.09375,-7.144531 -4.09375,-12.21875 0,-7.59375 2.945312,-13.507813 8.84375,-17.75 5.894531,-4.238281 13.863281,-6.359375 23.90625,-6.359375 z m 0,0"
           id="path76" />
      </g>
    </g>
  </g>
  <g
     clip-path="url(#185292ba4e)"
     id="g86"
     transform="translate(0,-14.954978)">
    <path
       fill="#e41d97"
       d="m 140.74609,85.5 c -15.34765,20.19141 -37.18359,32.03906 -58.929684,34.21484 L 118.59375,58.554688 C 118.30859,58.902344 95.40625,87.207031 78.351562,109.46484 76.46875,89.453125 82.34375,67.726562 96.328125,49.335938 112.08594,28.609375 134.67969,16.671875 157,14.964844 162.41406,37.613281 157.19531,63.863281 140.74609,85.5 Z m 0,0"
       fill-opacity="1"
       fill-rule="nonzero"
       id="path84" />
  </g>
  <path
     fill="#e669b4"
     d="m 41.667969,85.931742 c 8.445312,11.11328 20.460937,17.636718 32.429687,18.828118 L 53.855469,71.103616 C 54.007812,71.298928 66.613281,86.869242 76.003906,99.119242 77.035156,88.111432 73.804688,76.146584 66.113281,66.021584 57.441406,54.615334 45.007812,48.048928 32.71875,47.111428 29.734375,59.576272 32.609375,74.025491 41.667969,85.931742 Z m 0,0"
     fill-opacity="1"
     fill-rule="nonzero"
     id="path88" />
  <g
     clip-path="url(#13ed8ba791)"
     id="g92"
     transform="translate(0,-14.954978)">
    <path
       fill="#bf2594"
       d="m 165.64844,105.56641 c 0,24.66406 -37.08203,44.65234 -82.824221,44.65234 C 37.082031,150.21875 0,130.23047 0,105.56641 0,93.03125 9.582031,81.699219 25.015625,73.59375 c -7.535156,6.265625 -11.9375,13.796875 -11.9375,21.894531 0,21.878909 32.082031,39.613279 71.660156,39.613279 39.574219,0 71.656249,-17.73437 71.656249,-39.613279 0,-5.5 -2.02734,-10.746093 -5.69922,-15.511719 9.42578,7.246094 14.95313,16.070313 14.95313,25.589848 z m 0,0"
       fill-opacity="1"
       fill-rule="nonzero"
       id="path90" />
  </g>
  <path
     fill="#e41d97"
     d="m 88.558594,35.31846 c 0,0.546874 -0.02734,1.089843 -0.08203,1.636718 -0.05469,0.542969 -0.132812,1.082032 -0.242187,1.621094 -0.105469,0.535156 -0.238281,1.066406 -0.398437,1.585938 -0.15625,0.523437 -0.339844,1.039062 -0.550782,1.542968 -0.207031,0.507813 -0.441406,1 -0.699218,1.484375 -0.257813,0.480469 -0.539063,0.949219 -0.84375,1.402344 -0.304688,0.457031 -0.628907,0.894531 -0.976563,1.316406 -0.347656,0.425781 -0.710937,0.828125 -1.097656,1.214844 -0.386719,0.386719 -0.792969,0.753906 -1.214844,1.101563 -0.421875,0.347656 -0.863281,0.671874 -1.316406,0.976562 -0.453125,0.300781 -0.921875,0.582031 -1.40625,0.839844 C 79.25,50.298928 78.753906,50.533303 78.25,50.744241 c -0.503906,0.207031 -1.019531,0.390625 -1.542969,0.550781 -0.523437,0.160156 -1.054687,0.292969 -1.589843,0.398438 -0.535157,0.105468 -1.074219,0.1875 -1.621094,0.238281 -0.542969,0.05469 -1.089844,0.08203 -1.636719,0.08203 -0.546875,0 -1.089844,-0.02734 -1.636719,-0.08203 -0.542968,-0.05078 -1.082031,-0.132813 -1.621094,-0.238281 -0.535156,-0.105469 -1.066406,-0.238282 -1.589843,-0.398438 -0.519531,-0.160156 -1.035157,-0.34375 -1.539063,-0.550781 -0.507812,-0.210938 -1,-0.445313 -1.484375,-0.703125 -0.480469,-0.257813 -0.949219,-0.539063 -1.402343,-0.839844 -0.457032,-0.304688 -0.894532,-0.628906 -1.316407,-0.976562 -0.425781,-0.347657 -0.828125,-0.714844 -1.214843,-1.101563 -0.386719,-0.386719 -0.753907,-0.789063 -1.101563,-1.214844 -0.347656,-0.421875 -0.671875,-0.859375 -0.976563,-1.316406 -0.300781,-0.453125 -0.582031,-0.921875 -0.839843,-1.402344 -0.257813,-0.484375 -0.492188,-0.976562 -0.703125,-1.484375 -0.207032,-0.503906 -0.390625,-1.019531 -0.550782,-1.542968 -0.160156,-0.519532 -0.292968,-1.050782 -0.398437,-1.585938 -0.105469,-0.539062 -0.1875,-1.078125 -0.238281,-1.621094 -0.05469,-0.546875 -0.08203,-1.089844 -0.08203,-1.636718 0,-0.546876 0.02734,-1.09375 0.08203,-1.636719 0.05078,-0.546875 0.132812,-1.085938 0.238281,-1.621094 0.105469,-0.535156 0.238281,-1.066406 0.398437,-1.589844 0.160157,-0.523437 0.34375,-1.039062 0.550782,-1.542969 0.210937,-0.503906 0.445312,-1 0.703125,-1.480468 0.257812,-0.484375 0.539062,-0.953125 0.839843,-1.40625 0.304688,-0.453125 0.628907,-0.894532 0.976563,-1.316406 0.347656,-0.421876 0.714844,-0.828126 1.101563,-1.214844 0.386718,-0.386719 0.789062,-0.753906 1.214843,-1.097656 0.421875,-0.347657 0.859375,-0.671876 1.316407,-0.976563 0.453124,-0.304687 0.921874,-0.585937 1.402343,-0.84375 0.484375,-0.257813 0.976563,-0.492187 1.484375,-0.699219 0.503906,-0.210937 1.019532,-0.394531 1.539063,-0.550781 0.523437,-0.160156 1.054687,-0.292969 1.589843,-0.398437 0.539063,-0.109376 1.078126,-0.1875 1.621094,-0.242188 0.546875,-0.05469 1.089844,-0.08203 1.636719,-0.08203 0.546875,0 1.09375,0.02734 1.636719,0.08203 0.546875,0.05469 1.085937,0.132812 1.621094,0.242188 0.535156,0.105468 1.066406,0.238281 1.589843,0.398437 0.523438,0.15625 1.039063,0.339844 1.542969,0.550781 0.503906,0.207032 1,0.441406 1.480469,0.699219 0.484375,0.257813 0.953125,0.539063 1.40625,0.84375 0.453125,0.304687 0.894531,0.628906 1.316406,0.976563 0.421875,0.34375 0.828125,0.710937 1.214844,1.097656 0.386719,0.386718 0.75,0.792968 1.097656,1.214844 0.347656,0.421874 0.671875,0.863281 0.976563,1.316406 0.304687,0.453125 0.585937,0.921875 0.84375,1.40625 0.257812,0.480468 0.492187,0.976562 0.699218,1.480468 0.210938,0.503907 0.394532,1.019532 0.550782,1.542969 0.160156,0.523438 0.292968,1.054688 0.398437,1.589844 0.109375,0.535156 0.1875,1.074219 0.242187,1.621094 0.05469,0.542969 0.08203,1.089843 0.08203,1.636719 z m 0,0"
     fill-opacity="1"
     fill-rule="nonzero"
     id="path94" />
  <g
     fill="#bf2594"
     fill-opacity="1"
     id="g102"
     transform="translate(0,-14.954978)">
    <g
       transform="translate(-0.669482,290.47342)"
       id="g100">
      <g
         id="g98">
        <path
           d="m 19.101562,-36.140625 h -7.117187 l 0.9375,-3.746094 c 0.09375,-0.28125 0.28125,-0.746093 0.375,-1.402343 l 0.652344,-2.621094 0.5625,-1.875 1.03125,-3.558594 c 0,0.09375 0,0.1875 0.09375,0.1875 0,0.09375 0,0.09375 0.09375,0.1875 0.09375,0.09375 0.1875,0.46875 0.28125,0.9375 0.09375,0.5625 0.1875,0.9375 0.1875,1.125 0.09375,0 0.28125,0.652344 0.558593,1.871094 0.09375,0.1875 0.28125,0.46875 0.375,0.9375 0.09375,0.46875 0.1875,0.839844 0.1875,1.121094 0.28125,0.75 0.5625,1.78125 0.84375,2.996093 0.09375,0.375 0.1875,0.84375 0.375,1.5 0.1875,0.65625 0.28125,1.121094 0.375,1.214844 0.09375,0.1875 0.09375,0.5625 0.1875,1.125 z M 9.082031,-20.785156 c 0.09375,-0.09375 0.09375,-0.1875 0.1875,-0.28125 0,-0.09375 0,-0.1875 0,-0.375 0,-0.09375 0.09375,-0.28125 0.1875,-0.5625 0.09375,-0.1875 0.1875,-0.652344 0.28125,-1.496094 0.09375,-0.46875 0.28125,-1.875 0.46875,-4.121094 l 0.09375,-1.027344 h 10.578125 l 2.433594,7.769532 c 0.1875,0.28125 0.28125,0.65625 0.375,1.125 0.65625,1.683594 1.871094,2.527344 3.652344,2.621094 1.125,0 2.058594,-0.375 2.714844,-1.125 0.65625,-0.75 1.03125,-1.589844 1.03125,-2.433594 0,-0.46875 -0.1875,-1.21875 -0.46875,-2.152344 l -0.65625,-1.875 c -0.28125,-1.027344 -0.5625,-1.871094 -0.75,-2.527344 -0.1875,-0.5625 -0.375,-1.03125 -0.46875,-1.308594 -0.09375,-0.28125 -0.1875,-0.46875 -0.1875,-0.65625 -0.08984,-0.1875 -0.183594,-0.375 -0.277344,-0.65625 0.652344,-0.65625 1.027344,-1.5 1.027344,-2.339843 0,-0.375 -0.09375,-0.75 -0.1875,-1.125 -0.28125,-1.496094 -1.027344,-2.433594 -2.339844,-2.714844 0,-0.375 -0.09375,-0.65625 -0.1875,-0.9375 0,-0.375 0,-0.746094 -0.09375,-1.121094 -0.09375,-0.375 -0.1875,-0.65625 -0.28125,-0.9375 -0.09375,-0.1875 -0.28125,-0.84375 -0.5625,-1.871093 C 25,-43.722656 24.53125,-45.410156 24.4375,-45.972656 24.25,-46.535156 24.0625,-47.28125 23.78125,-48.125 23.5,-48.96875 23.3125,-49.53125 23.21875,-49.996094 c -0.09375,-0.46875 -0.1875,-0.75 -0.28125,-1.03125 -0.09375,-0.28125 -0.1875,-0.5625 -0.28125,-1.03125 -0.09375,-0.46875 -0.277344,-0.652344 -0.371094,-0.746094 -0.09375,-0.46875 -0.28125,-1.40625 -0.65625,-2.808593 -0.09375,-0.28125 -0.09375,-0.5625 -0.09375,-0.65625 0,-0.09375 0,-0.28125 0,-0.46875 -0.09375,-0.09375 -0.09375,-0.28125 -0.09375,-0.46875 -0.09375,-0.1875 -0.09375,-0.28125 -0.09375,-0.375 -0.09375,-0.09375 -0.09375,-0.09375 -0.09375,-0.1875 -0.09375,-0.65625 -0.1875,-1.121094 -0.375,-1.496094 0,-0.46875 -0.09375,-0.9375 -0.1875,-1.21875 0,-0.46875 -0.09375,-0.9375 -0.1875,-1.214844 -0.1875,-1.03125 -0.46875,-1.875 -0.84375,-2.625 -0.746094,-1.402343 -1.871094,-2.152343 -3.273437,-2.152343 -0.09375,-0.09375 -0.28125,-0.09375 -0.46875,-0.09375 -1.21875,0 -2.15625,0.46875 -2.996094,1.5 l -0.1875,0.375 c -0.28125,0.371093 -0.5625,0.746093 -0.65625,1.027343 -0.09375,0.375 -0.1875,0.65625 -0.28125,0.9375 -0.09375,0.28125 -0.1875,0.5625 -0.28125,0.84375 -0.09375,0.28125 -0.28125,0.464844 -0.375,0.746094 -0.09375,0.28125 -0.46875,1.40625 -0.933594,3.277344 -0.09375,0.5625 -0.28125,1.21875 -0.46875,1.875 -0.28125,0.652343 -0.65625,2.058593 -1.21875,4.023437 l -0.65625,2.0625 c 0,0.1875 -0.09375,0.464844 -0.1875,0.933594 -0.09375,0.46875 -0.183593,0.84375 -0.277343,1.125 -0.09375,0.28125 -0.1875,0.65625 -0.28125,0.9375 -0.09375,0.371094 -0.28125,0.746094 -0.375,1.121094 l -1.3125,4.964844 -0.1875,1.121093 c -0.375,1.125 -0.5625,1.78125 -0.5625,1.96875 -0.09375,0.464844 -0.183594,1.027344 -0.371094,1.589844 -1.21875,0 -2.0625,0.46875 -2.71875,1.5 -0.464844,0.746094 -0.652344,1.496094 -0.652344,2.339844 0,1.496093 0.652344,2.621093 1.871094,3.277343 0,0.746094 0,1.214844 -0.09375,1.308594 -0.09375,0.09375 -0.09375,0.28125 -0.09375,0.46875 0,0.1875 0,0.375 0,0.65625 -0.09375,0.28125 -0.09375,0.5625 -0.09375,0.75 -0.09375,0.28125 -0.09375,0.464844 -0.09375,0.652344 -0.09375,0.1875 -0.09375,0.375 -0.09375,0.5625 0,0.1875 -0.09375,0.375 -0.1875,0.65625 l -0.28125,1.496094 c -0.09375,0 -0.09375,0.09375 -0.09375,0.28125 l -0.09375,1.21875 c 0,0.75 0.1875,1.40625 0.65625,2.058594 0.9375,1.03125 1.96875,1.5 3.183594,1.5 0.65625,0 1.21875,-0.1875 1.875,-0.5625 0.933593,-0.65625 1.496093,-1.5 1.683593,-2.714844 z m 0,0"
           id="path96" />
      </g>
    </g>
  </g>
  <g
     fill="#bf2594"
     fill-opacity="1"
     id="g110"
     transform="translate(0,-14.954978)">
    <g
       transform="translate(35.936331,290.47342)"
       id="g108">
      <g
         id="g106">
        <path
           d="m 2.714844,-60.953125 -0.09375,-0.28125 c 0.09375,0.09375 0.09375,0.1875 0.09375,0.28125 z m 1.964844,46.160156 c 0.46875,0 0.84375,-0.09375 1.3125,-0.1875 0.46875,0 0.84375,0 1.03125,0 0.1875,0.09375 5.523437,0.09375 15.914062,0.09375 1.875,0 3.183594,-0.65625 3.933594,-1.871093 0.375,-0.65625 0.5625,-1.3125 0.5625,-1.96875 0,-0.65625 -0.1875,-1.214844 -0.5625,-1.777344 -0.84375,-1.21875 -2.152344,-1.875 -4.027344,-1.875 H 8.613281 v -0.839844 c 0.09375,-0.65625 0.09375,-1.40625 0.09375,-2.15625 0.09375,0 0.09375,-0.183594 0.09375,-0.652344 0,-0.46875 0,-0.75 0.09375,-1.03125 0,-0.1875 0,-0.375 0,-0.46875 l 0.09375,-2.058594 c 0,-0.75 0,-1.3125 0.09375,-1.59375 0,-0.28125 0,-0.464843 0,-0.558593 l 0.1875,-4.308594 c 0,-0.5625 0,-1.03125 0.09375,-1.40625 0,-0.277344 0,-0.652344 0,-0.933594 0,-0.28125 0,-0.5625 0.09375,-0.9375 0,-0.375 0,-0.75 0,-1.03125 0,-0.277343 0,-0.652343 0.09375,-1.027343 0.09375,-1.03125 0.09375,-2.0625 0.09375,-3.089844 0,-0.375 0,-0.75 0.09375,-1.125 0,-0.375 0,-1.402344 0,-2.996094 0.09375,-1.496094 0.1875,-2.808594 0.1875,-3.839844 0,-0.464844 0,-0.933594 0.09375,-1.214844 0,-0.28125 0,-1.125 0,-2.433593 0.09375,-0.65625 0.09375,-1.78125 0.09375,-3.277344 0,-1.78125 0,-2.714844 -0.09375,-2.996094 -0.09375,-1.03125 -0.5625,-1.875 -1.21875,-2.433593 -0.75,-0.46875 -1.589843,-0.75 -2.527343,-0.75 -1.03125,0 -1.871094,0.375 -2.621094,1.027343 -0.75,0.75 -1.125,1.59375 -1.125,2.53125 l 0.09375,2.339844 c 0,1.496094 0,2.621094 -0.09375,3.371094 0,2.058593 -0.09375,3.835937 -0.1875,5.429687 0,1.589844 0,2.527344 0,2.808594 -0.09375,0.375 -0.09375,0.75 -0.09375,1.03125 0,0.28125 0,0.652344 0,1.027344 -0.09375,0.375 -0.09375,0.75 -0.09375,1.03125 0,0.28125 0,0.65625 0,1.03125 -0.09375,0.371094 -0.09375,0.746094 -0.09375,1.027344 0,0.375 0,0.75 0,1.125 -0.09375,0.375 -0.09375,0.75 -0.09375,1.125 0,1.777343 -0.09375,3.554687 -0.1875,5.242187 -0.09375,0.375 -0.09375,0.839844 -0.09375,1.496094 0,0.65625 0,1.125 0,1.3125 -0.09375,0.1875 -0.09375,0.5625 -0.09375,1.027343 0,0.5625 0,0.9375 0,1.125 C 1.5,-30.242188 1.5,-30.054688 1.5,-29.960938 l -0.09375,2.152344 c 0,0.09375 0,0.1875 0,0.28125 -0.09375,0.1875 -0.09375,0.65625 -0.09375,1.3125 0,0.46875 0,0.746094 0,0.839844 -0.09375,0.09375 -0.09375,0.5625 -0.09375,1.3125 0,0.75 0,1.40625 -0.09375,2.058594 -0.09375,0.46875 -0.09375,1.3125 -0.1875,2.714844 0,1.78125 0.46875,3.089843 1.496094,3.839843 0.65625,0.46875 1.40625,0.65625 2.246094,0.65625 z m 0,0"
           id="path104" />
      </g>
    </g>
  </g>
  <g
     fill="#bf2594"
     fill-opacity="1"
     id="g118"
     transform="translate(0,-14.954978)">
    <g
       transform="translate(68.797347,290.47342)"
       id="g116">
      <g
         id="g114">
        <path
           d="m 33.894531,-13.109375 c 1.589844,0 2.808594,-0.558594 3.652344,-1.777344 0.371094,-0.65625 0.558594,-1.3125 0.558594,-1.964843 l -0.1875,-1.21875 -0.371094,-3.089844 -0.09375,-1.496094 c 0,-1.21875 0,-2.0625 0,-2.34375 -0.09375,-0.28125 -0.09375,-0.933594 -0.09375,-1.964844 0,-1.03125 0,-1.964844 -0.09375,-2.621094 0,-3.183593 0,-5.148437 -0.09375,-5.898437 0,-3.464844 0,-5.617187 -0.09375,-6.367187 0,-4.683594 0,-7.210938 0,-7.585938 -0.09375,-0.371094 -0.09375,-4.117188 -0.09375,-11.140625 0,-1.683594 -0.65625,-2.808594 -1.875,-3.371094 -0.652344,-0.375 -1.214844,-0.5625 -1.871094,-0.5625 -0.65625,0 -1.21875,0.1875 -1.871093,0.5625 -1.21875,0.65625 -1.875,1.78125 -1.875,3.371094 0,7.117187 0,10.863281 0.09375,11.234375 0,0.375 0,2.902344 0,7.585938 0.09375,0.75 0.09375,2.808593 0.09375,6.273437 0.09375,0.84375 0.09375,1.871094 0.09375,3.089844 l -1.871094,-3.746094 c 0,-0.1875 -0.28125,-0.84375 -0.84375,-1.871094 0,-0.09375 -0.28125,-0.75 -0.84375,-1.875 -0.1875,-0.746093 -0.5625,-1.402343 -1.027344,-2.058593 -0.28125,-0.75 -0.75,-1.40625 -1.40625,-1.964844 -0.5625,-0.65625 -1.402344,-1.125 -2.527344,-1.40625 l -0.9375,-0.09375 c -1.402344,0 -2.714844,0.46875 -3.835937,1.5 -0.28125,0.28125 -0.5625,0.558594 -0.84375,1.027344 -0.375,0.46875 -0.75,1.03125 -1.21875,1.6875 l -1.589844,2.996093 -2.808594,7.113281 -0.28125,0.65625 c 0,-1.03125 -0.09375,-1.777343 -0.1875,-2.433593 l -0.46875,-10.859375 c 0,-2.996094 0,-4.683594 0,-5.058594 -0.09375,-0.28125 -0.09375,-0.75 -0.09375,-1.402344 l 0.09375,-1.125 -0.1875,-3.558594 c 0,-0.746093 -0.09375,-1.402343 -0.1875,-2.058593 0,-0.84375 0,-1.40625 0,-1.59375 -0.09375,-0.183594 -0.09375,-0.371094 -0.09375,-0.464844 0,-0.5625 -0.09375,-1.21875 -0.1875,-1.96875 -0.09375,-1.683594 -0.75,-2.808594 -2.058593,-3.371094 -0.65625,-0.28125 -1.21875,-0.464843 -1.78125,-0.464843 -0.652344,0 -1.308594,0.183593 -1.964844,0.652343 C 1.5,-63.480469 0.9375,-62.355469 0.9375,-60.859375 v 0.375 c 0.09375,0.75 0.1875,1.875 0.1875,3.277344 0.1875,1.40625 0.28125,2.339843 0.28125,2.996093 l 0.183594,2.902344 -0.089844,1.125 c 0,0.375 0,0.746094 0.089844,1.121094 0,0.375 0,2.25 0,5.523438 0.09375,0.84375 0.09375,1.5 0.09375,2.0625 0,0.5625 0,1.027343 0.09375,1.402343 0,0.375 0,0.75 0,1.03125 0,0.375 0,0.75 0.09375,1.125 0,0.371094 0,0.746094 0,1.027344 0,0.375 0,0.75 0.09375,1.125 l 0.09375,3.089844 c 0.09375,0.75 0.1875,1.496093 0.28125,2.152343 0.09375,0.75 0.09375,1.40625 0.09375,1.96875 0.09375,0.277344 0.09375,0.558594 0.1875,0.839844 0,0.375 0,0.9375 0.09375,1.78125 0.09375,0.839844 0.09375,1.777344 0.09375,2.808594 0.09375,0.652344 0.1875,1.214844 0.1875,1.683594 l 0.65625,3.558594 c 0.28125,1.125 0.75,1.964843 1.214844,2.527343 1.03125,1.03125 2.25,1.59375 3.652343,1.59375 0.09375,-0.09375 0.28125,-0.09375 0.65625,-0.09375 l 0.375,-0.1875 c 1.027344,-0.375 1.871094,-1.125 2.527344,-2.25 0.375,-0.746093 0.75,-1.496093 1.03125,-2.339843 l 1.496094,-3.929688 0.9375,-2.0625 c 0.09375,-0.375 0.1875,-0.84375 0.46875,-1.308594 0.09375,-0.1875 0.1875,-0.375 0.1875,-0.46875 0.464843,-1.03125 0.746093,-1.6875 0.839843,-2.0625 0.5625,-1.589844 1.03125,-2.808594 1.40625,-3.554687 l 0.5625,-1.59375 c 0.09375,-0.09375 0.1875,-0.28125 0.28125,-0.375 0,-0.09375 0,-0.28125 0.09375,-0.46875 0.183594,-0.464844 0.371094,-0.652344 0.464844,-0.746094 0.09375,-0.09375 0.09375,-0.1875 0.09375,-0.375 l 1.59375,3.558594 L 25.1875,-25 c 0.371094,0.46875 0.652344,1.125 0.933594,1.875 0.09375,0.09375 0.28125,0.375 0.375,0.746094 l 0.09375,0.1875 c 0.28125,0.375 0.5625,0.65625 0.65625,0.9375 0.09375,0.28125 0.1875,0.5625 0.375,0.84375 0.1875,0.28125 0.375,0.65625 0.46875,1.027344 0.09375,0.09375 0.1875,0.28125 0.464844,0.65625 0.28125,0.46875 0.375,0.84375 0.46875,1.125 l 1.6875,2.714843 c 0.933593,1.21875 1.964843,1.777344 3.183593,1.777344 z m 0,0"
           id="path112" />
      </g>
    </g>
  </g>
  <g
     fill="#bf2594"
     fill-opacity="1"
     id="g126"
     transform="translate(0,-14.954978)">
    <g
       transform="translate(112.42463,290.47342)"
       id="g124">
      <g
         id="g122">
        <path
           d="m 19.101562,-36.140625 h -7.117187 l 0.9375,-3.746094 c 0.09375,-0.28125 0.28125,-0.746093 0.375,-1.402343 l 0.652344,-2.621094 0.5625,-1.875 1.03125,-3.558594 c 0,0.09375 0,0.1875 0.09375,0.1875 0,0.09375 0,0.09375 0.09375,0.1875 0.09375,0.09375 0.1875,0.46875 0.28125,0.9375 0.09375,0.5625 0.1875,0.9375 0.1875,1.125 0.09375,0 0.28125,0.652344 0.558593,1.871094 0.09375,0.1875 0.28125,0.46875 0.375,0.9375 0.09375,0.46875 0.1875,0.839844 0.1875,1.121094 0.28125,0.75 0.5625,1.78125 0.84375,2.996093 0.09375,0.375 0.1875,0.84375 0.375,1.5 0.1875,0.65625 0.28125,1.121094 0.375,1.214844 0.09375,0.1875 0.09375,0.5625 0.1875,1.125 z M 9.082031,-20.785156 c 0.09375,-0.09375 0.09375,-0.1875 0.1875,-0.28125 0,-0.09375 0,-0.1875 0,-0.375 0,-0.09375 0.09375,-0.28125 0.1875,-0.5625 0.09375,-0.1875 0.1875,-0.652344 0.28125,-1.496094 0.09375,-0.46875 0.28125,-1.875 0.46875,-4.121094 l 0.09375,-1.027344 h 10.578125 l 2.433594,7.769532 c 0.1875,0.28125 0.28125,0.65625 0.375,1.125 0.65625,1.683594 1.871094,2.527344 3.652344,2.621094 1.125,0 2.058594,-0.375 2.714844,-1.125 0.65625,-0.75 1.03125,-1.589844 1.03125,-2.433594 0,-0.46875 -0.1875,-1.21875 -0.46875,-2.152344 l -0.65625,-1.875 c -0.28125,-1.027344 -0.5625,-1.871094 -0.75,-2.527344 -0.1875,-0.5625 -0.375,-1.03125 -0.46875,-1.308594 -0.09375,-0.28125 -0.1875,-0.46875 -0.1875,-0.65625 -0.08984,-0.1875 -0.183594,-0.375 -0.277344,-0.65625 0.652344,-0.65625 1.027344,-1.5 1.027344,-2.339843 0,-0.375 -0.09375,-0.75 -0.1875,-1.125 -0.28125,-1.496094 -1.027344,-2.433594 -2.339844,-2.714844 0,-0.375 -0.09375,-0.65625 -0.1875,-0.9375 0,-0.375 0,-0.746094 -0.09375,-1.121094 -0.09375,-0.375 -0.1875,-0.65625 -0.28125,-0.9375 -0.09375,-0.1875 -0.28125,-0.84375 -0.5625,-1.871093 C 25,-43.722656 24.53125,-45.410156 24.4375,-45.972656 24.25,-46.535156 24.0625,-47.28125 23.78125,-48.125 23.5,-48.96875 23.3125,-49.53125 23.21875,-49.996094 c -0.09375,-0.46875 -0.1875,-0.75 -0.28125,-1.03125 -0.09375,-0.28125 -0.1875,-0.5625 -0.28125,-1.03125 -0.09375,-0.46875 -0.277344,-0.652344 -0.371094,-0.746094 -0.09375,-0.46875 -0.28125,-1.40625 -0.65625,-2.808593 -0.09375,-0.28125 -0.09375,-0.5625 -0.09375,-0.65625 0,-0.09375 0,-0.28125 0,-0.46875 -0.09375,-0.09375 -0.09375,-0.28125 -0.09375,-0.46875 -0.09375,-0.1875 -0.09375,-0.28125 -0.09375,-0.375 -0.09375,-0.09375 -0.09375,-0.09375 -0.09375,-0.1875 -0.09375,-0.65625 -0.1875,-1.121094 -0.375,-1.496094 0,-0.46875 -0.09375,-0.9375 -0.1875,-1.21875 0,-0.46875 -0.09375,-0.9375 -0.1875,-1.214844 -0.1875,-1.03125 -0.46875,-1.875 -0.84375,-2.625 -0.746094,-1.402343 -1.871094,-2.152343 -3.273437,-2.152343 -0.09375,-0.09375 -0.28125,-0.09375 -0.46875,-0.09375 -1.21875,0 -2.15625,0.46875 -2.996094,1.5 l -0.1875,0.375 c -0.28125,0.371093 -0.5625,0.746093 -0.65625,1.027343 -0.09375,0.375 -0.1875,0.65625 -0.28125,0.9375 -0.09375,0.28125 -0.1875,0.5625 -0.28125,0.84375 -0.09375,0.28125 -0.28125,0.464844 -0.375,0.746094 -0.09375,0.28125 -0.46875,1.40625 -0.933594,3.277344 -0.09375,0.5625 -0.28125,1.21875 -0.46875,1.875 -0.28125,0.652343 -0.65625,2.058593 -1.21875,4.023437 l -0.65625,2.0625 c 0,0.1875 -0.09375,0.464844 -0.1875,0.933594 -0.09375,0.46875 -0.183593,0.84375 -0.277343,1.125 -0.09375,0.28125 -0.1875,0.65625 -0.28125,0.9375 -0.09375,0.371094 -0.28125,0.746094 -0.375,1.121094 l -1.3125,4.964844 -0.1875,1.121093 c -0.375,1.125 -0.5625,1.78125 -0.5625,1.96875 -0.09375,0.464844 -0.183594,1.027344 -0.371094,1.589844 -1.21875,0 -2.0625,0.46875 -2.71875,1.5 -0.464844,0.746094 -0.652344,1.496094 -0.652344,2.339844 0,1.496093 0.652344,2.621093 1.871094,3.277343 0,0.746094 0,1.214844 -0.09375,1.308594 -0.09375,0.09375 -0.09375,0.28125 -0.09375,0.46875 0,0.1875 0,0.375 0,0.65625 -0.09375,0.28125 -0.09375,0.5625 -0.09375,0.75 -0.09375,0.28125 -0.09375,0.464844 -0.09375,0.652344 -0.09375,0.1875 -0.09375,0.375 -0.09375,0.5625 0,0.1875 -0.09375,0.375 -0.1875,0.65625 l -0.28125,1.496094 c -0.09375,0 -0.09375,0.09375 -0.09375,0.28125 l -0.09375,1.21875 c 0,0.75 0.1875,1.40625 0.65625,2.058594 0.9375,1.03125 1.96875,1.5 3.183594,1.5 0.65625,0 1.21875,-0.1875 1.875,-0.5625 0.933593,-0.65625 1.496093,-1.5 1.683593,-2.714844 z m 0,0"
           id="path120" />
      </g>
    </g>
  </g>
  <g
     fill="#bf2594"
     fill-opacity="1"
     id="g134"
     transform="translate(0,-14.954978)">
    <g
       transform="translate(149.03045,290.47342)"
       id="g132">
      <g
         id="g130">
        <path
           d="m 17.789062,-13.761719 c 0.65625,0 1.21875,-0.1875 1.871094,-0.46875 1.21875,-0.65625 1.875,-1.875 1.875,-3.558593 l -0.09375,-4.589844 c 0,-1.589844 0,-2.621094 -0.09375,-3.089844 0,-2.246094 0,-3.554688 -0.09375,-4.023438 0,-1.78125 0,-2.808593 0,-3.089843 -0.09375,-0.28125 -0.09375,-0.5625 -0.09375,-0.84375 0,-0.28125 0,-0.5625 0,-0.84375 -0.09375,-0.28125 -0.09375,-0.558594 -0.09375,-0.839844 0,-0.28125 0,-0.46875 0,-0.75 -0.09375,-0.1875 -0.09375,-0.46875 -0.09375,-0.75 0,-0.28125 0,-0.46875 0,-0.75 -0.09375,-0.277344 -0.09375,-0.464844 -0.09375,-0.652344 0,-0.1875 0,-0.375 0,-0.5625 -0.09375,-0.09375 -0.09375,-0.28125 -0.09375,-0.375 0.28125,-0.28125 0.5625,-0.5625 0.75,-0.84375 0.1875,-0.28125 0.375,-0.46875 0.5625,-0.65625 0.1875,-0.183593 0.464844,-0.652343 0.933594,-1.308593 0.28125,-0.28125 0.46875,-0.5625 0.65625,-0.84375 0.09375,-0.28125 0.28125,-0.46875 0.375,-0.65625 0.28125,-0.464844 0.5625,-0.933594 0.84375,-1.496094 0.652344,-1.03125 1.027344,-1.78125 1.214844,-2.246094 l 0.1875,-0.375 c 0.28125,-0.46875 0.46875,-0.65625 0.46875,-0.75 l 0.9375,-1.871094 c 0.28125,-0.5625 0.5625,-1.125 0.839844,-1.6875 0.1875,-0.5625 0.375,-1.121094 0.65625,-1.777344 0.46875,-0.84375 0.75,-1.5 0.84375,-1.96875 0.09375,-0.464843 0.375,-1.027343 0.65625,-1.777343 l 0.5625,-1.777344 c 0.09375,-0.28125 0.1875,-0.46875 0.1875,-0.65625 0.277343,-0.65625 0.371093,-1.21875 0.371093,-1.6875 0,-0.746094 -0.277343,-1.402344 -0.746093,-1.964844 -0.75,-1.03125 -1.78125,-1.496093 -3.089844,-1.496093 -1.6875,0 -2.902344,0.933593 -3.652344,2.808593 0,0.1875 -0.09375,0.375 -0.1875,0.558594 -0.5625,1.96875 -0.9375,2.996094 -1.03125,3.277344 -0.1875,0.28125 -0.375,0.65625 -0.46875,0.9375 -0.464844,1.21875 -0.746094,1.964843 -1.027344,2.433593 -0.1875,0.5625 -0.375,1.03125 -0.5625,1.5 -0.28125,0.46875 -0.46875,0.746094 -0.5625,1.027344 -0.09375,0.28125 -0.28125,0.46875 -0.375,0.5625 -0.09375,0.1875 -0.28125,0.5625 -0.5625,1.125 l -1.871094,3.371094 c -0.28125,0.375 -0.5625,0.746094 -0.75,1.121094 l -0.558593,0.84375 h -0.09375 l -0.375,-0.75 c -0.375,-0.933594 -0.65625,-1.496094 -0.84375,-1.683594 -0.375,-1.03125 -0.65625,-1.59375 -0.84375,-1.78125 -0.28125,-0.746094 -0.5625,-1.402344 -0.839844,-1.871094 0,-0.1875 -0.09375,-0.46875 -0.375,-0.75 -0.5625,-1.402344 -1.03125,-2.339844 -1.5,-2.902344 -0.1875,-0.28125 -0.375,-0.5625 -0.5625,-1.027343 -0.28125,-0.75 -0.558594,-1.3125 -0.839844,-1.59375 -0.28125,-0.75 -0.46875,-1.121094 -0.5625,-1.121094 -0.1875,-0.46875 -0.375,-0.84375 -0.5625,-1.125 l -0.375,-0.75 c 0,-0.1875 -0.09375,-0.375 -0.375,-0.65625 l -0.09375,-0.1875 C 7.492188,-62.917969 6.460938,-63.761719 5.054688,-63.855469 H 4.496094 c -1.125,0 -2.0625,0.46875 -2.8125,1.5 -0.464844,0.65625 -0.746094,1.308594 -0.746094,2.152344 0,0.5625 0.1875,1.21875 0.46875,1.871094 0,0.09375 0.09375,0.28125 0.277344,0.46875 0.09375,0.1875 0.1875,0.46875 0.28125,0.75 0.09375,0 0.28125,0.28125 0.46875,0.84375 0.09375,0.09375 0.1875,0.28125 0.28125,0.375 0.09375,0.1875 0.09375,0.371093 0.1875,0.464843 0.5625,1.03125 1.03125,1.96875 1.5,2.996094 0.277344,0.375 0.371094,0.65625 0.464844,0.75 0.09375,0.09375 0.09375,0.28125 0.09375,0.375 0.28125,0.375 0.5625,0.9375 0.84375,1.59375 0.09375,0.09375 0.28125,0.277344 0.375,0.558594 0.09375,0.28125 0.1875,0.46875 0.28125,0.65625 0.09375,0.28125 0.1875,0.46875 0.1875,0.5625 0.28125,0.375 0.5625,0.9375 0.84375,1.683594 0.183593,0.1875 0.464843,0.75 0.839843,1.78125 0.09375,0.09375 0.28125,0.46875 0.5625,1.027344 l 1.125,2.25 c 0.839844,1.683593 1.964844,2.902343 3.371094,3.742187 0,0.1875 0,0.375 0.09375,0.65625 0,0.28125 0,0.46875 0,0.75 0,0.28125 0,0.46875 0.08984,0.75 0,0.28125 0,0.46875 0,0.746094 0,0.28125 0,0.5625 0.09375,0.84375 0,0.28125 0,0.46875 0,0.75 0,0.28125 0,0.46875 0.09375,0.75 0,0.28125 0,1.308593 0,2.902343 0.09375,0.5625 0.09375,1.214844 0.09375,1.964844 0,0.1875 0,0.46875 0.09375,0.75 0,0.28125 0,1.308594 0,3.089844 0,1.777344 0,2.902344 0.09375,3.277344 0,0.375 0,1.214844 0,2.527344 0,1.683593 0.65625,2.808593 1.875,3.464843 0.652343,0.28125 1.214843,0.46875 1.871093,0.46875 z m 0,0"
           id="path128" />
      </g>
    </g>
  </g>
  <g
     fill="#bf2594"
     fill-opacity="1"
     id="g140"
     transform="translate(0,-14.954978)">
    <g
       transform="translate(186.38519,290.47342)"
       id="g138">
      <g
         id="g136" />
    </g>
  </g>
  <g
     fill="#bf2594"
     fill-opacity="1"
     id="g148"
     transform="translate(0,-14.954978)">
    <g
       transform="translate(209.79064,290.47342)"
       id="g146">
      <g
         id="g144">
        <path
           d="m 14.980469,-41.007812 h -2.339844 c -0.28125,-0.09375 -0.65625,-0.1875 -1.03125,-0.1875 -0.1875,-0.09375 -0.375,-0.1875 -0.5625,-0.1875 -0.46875,-0.28125 -1.027344,-0.375 -1.496094,-0.375 h -0.5625 v -1.59375 c 0.09375,-0.933594 0.09375,-2.246094 0.09375,-3.929688 0,-1.78125 0,-2.808594 0,-3.089844 -0.09375,-0.28125 -0.09375,-0.75 -0.09375,-1.5 0,-0.65625 0,-1.308594 -0.09375,-1.777344 l 1.03125,-1.03125 c 0.09375,0 0.1875,-0.09375 0.375,-0.1875 0.09375,-0.09375 0.277344,-0.1875 0.464844,-0.1875 0.375,-0.1875 1.125,-0.28125 2.15625,-0.28125 0.375,0 0.746094,0.09375 1.027344,0.28125 0.28125,0 0.46875,0 0.65625,0.09375 0.09375,0.09375 0.1875,0.1875 0.28125,0.28125 0.375,0.1875 0.65625,0.375 0.84375,0.5625 0.5625,0.28125 1.308593,1.03125 2.339843,2.433594 0.1875,0.28125 0.375,0.5625 0.5625,0.9375 0.1875,0.375 0.375,0.84375 0.65625,1.402344 0.1875,0.5625 0.277344,1.125 0.371094,1.78125 v 1.121094 c 0,0.75 0,1.21875 0,1.5 -0.09375,0.28125 -0.183594,0.84375 -0.464844,1.496094 -0.09375,0.375 -0.28125,0.65625 -0.375,0.75 -0.1875,0.1875 -0.375,0.28125 -0.46875,0.375 -0.09375,0.09375 -0.1875,0.1875 -0.28125,0.28125 -0.09375,0.09375 -0.28125,0.09375 -0.46875,0.1875 -0.1875,0.09375 -0.375,0.1875 -0.65625,0.28125 -0.28125,0.09375 -0.558593,0.1875 -0.839843,0.28125 -0.28125,0.09375 -0.65625,0.1875 -1.125,0.28125 z m 10.488281,29.492187 c 1.121094,0 2.058594,-0.375 2.714844,-1.125 0.652344,-0.75 0.933594,-1.589844 0.933594,-2.433594 0,-0.46875 -0.09375,-1.03125 -0.28125,-1.589843 -0.09375,-0.5625 -0.1875,-0.9375 -0.28125,-1.125 -0.08984,-0.09375 -0.183594,-0.28125 -0.277344,-0.46875 -0.09375,-0.09375 -0.1875,-0.28125 -0.28125,-0.5625 -0.1875,-0.5625 -0.28125,-0.839844 -0.375,-0.933594 -0.28125,-0.75 -0.5625,-1.5 -0.9375,-2.15625 -0.5625,-1.496094 -1.308594,-2.902344 -2.246094,-4.210938 -0.46875,-1.125 -1.3125,-2.34375 -2.527344,-3.746094 -0.46875,-0.75 -0.9375,-1.40625 -1.5,-1.871093 -0.65625,-0.84375 -1.402344,-1.59375 -2.246094,-2.25 l 0.375,-0.09375 c 0.84375,-0.28125 1.683594,-0.652344 2.714844,-1.121094 l 0.375,-0.1875 c 1.308594,-0.84375 2.339844,-1.6875 2.996094,-2.527344 1.121094,-1.5 1.777344,-2.808593 1.871094,-3.839843 0.46875,-1.125 0.65625,-2.433594 0.65625,-3.839844 v -2.058594 c 0,-0.75 -0.09375,-1.5 -0.28125,-2.246094 -0.1875,-0.75 -0.375,-1.5 -0.65625,-2.25 -0.28125,-0.746094 -0.5625,-1.308594 -0.839844,-1.777344 -0.375,-0.84375 -0.75,-1.5 -1.125,-1.964843 -0.46875,-0.75 -0.9375,-1.3125 -1.3125,-1.6875 -1.027344,-1.402344 -2.058594,-2.339844 -3.089844,-2.808594 -0.558594,-0.46875 -1.121094,-0.84375 -1.777344,-1.03125 -1.871093,-0.933594 -3.933593,-1.402344 -6.273437,-1.402344 -1.21875,0 -2.527344,0.28125 -3.933594,0.84375 -0.09375,0 -0.1875,0 -0.28125,0.09375 -0.089843,0.09375 -0.089843,0.09375 -0.183593,0.09375 -0.65625,-0.75 -1.59375,-1.125 -2.71875,-1.125 -1.121094,0 -2.058594,0.46875 -2.902344,1.3125 -0.558594,0.652344 -0.839844,1.496094 -0.839844,2.433594 l 0.09375,1.027344 0.09375,0.09375 c 0,0.09375 0,0.09375 0.09375,0.1875 0,0.09375 0,0.1875 0,0.28125 0,0.1875 0,0.375 0.09375,0.46875 0,0.09375 0,0.28125 0,0.46875 0,0.1875 0,0.375 0.09375,0.5625 0,0.1875 0,0.652343 0,1.308593 0,0.65625 0,1.125 0.09375,1.3125 0,0.28125 0,0.75 0,1.589844 0,0.84375 0,1.3125 0.089844,1.59375 0,0.28125 0,1.308594 0,2.996094 0,1.683594 0,2.996094 -0.089844,3.929688 0,6.460937 0,10.300781 -0.09375,11.332031 -0.09375,0.464843 -0.09375,0.839843 -0.09375,1.121093 0,0.375 0,0.75 0,1.125 -0.09375,0.375 -0.09375,0.75 -0.09375,1.125 0,0.464844 0,0.839844 0,1.214844 -0.09375,0.375 -0.09375,0.84375 -0.09375,1.3125 0,0.46875 0,1.214844 -0.09375,2.152344 v 6.929688 c 0.09375,0.1875 0.09375,0.46875 0.09375,0.746093 0.09375,1.59375 0.839844,2.71875 2.058594,3.371094 0.65625,0.28125 1.21875,0.375 1.777344,0.375 0.65625,0 1.3125,-0.1875 1.96875,-0.5625 1.121093,-0.652344 1.683593,-1.683594 1.683593,-3.089844 0,-0.839843 0,-1.214843 -0.09375,-1.308593 v -6.273438 l 0.28125,-7.210938 c 0.375,0.09375 0.84375,0.28125 1.40625,0.5625 l 0.28125,0.09375 c 0.839844,0.375 1.589844,0.84375 2.058594,1.3125 0.375,0.1875 0.75,0.558594 1.121094,1.027344 0.375,0.1875 0.75,0.5625 1.125,1.21875 0.375,0.375 0.75,0.84375 1.21875,1.402344 0.46875,0.5625 0.839843,1.125 1.121093,1.59375 0.28125,0.46875 0.65625,1.03125 0.9375,1.589844 0.65625,1.03125 1.3125,2.15625 1.777344,3.371094 0.28125,0.375 0.5625,1.125 1.03125,2.339843 l 0.1875,0.46875 c 0.28125,0.375 0.375,0.75 0.375,1.03125 0.1875,0.09375 0.28125,0.375 0.375,0.75 0.65625,1.777344 1.871094,2.621094 3.652344,2.714844 z m 0,0"
           id="path142" />
      </g>
    </g>
  </g>
  <g
     fill="#bf2594"
     fill-opacity="1"
     id="g156"
     transform="translate(0,-14.954978)">
    <g
       transform="translate(244.52405,290.47342)"
       id="g154">
      <g
         id="g152">
        <path
           d="m 5.429688,-15.449219 c 0.65625,0 1.3125,-0.1875 1.96875,-0.46875 l 1.027343,-0.46875 c 0.375,-0.09375 0.65625,-0.09375 0.9375,-0.183593 0.1875,0 0.375,0 0.46875,0 0.09375,0 0.28125,-0.09375 0.46875,-0.1875 0.1875,-0.09375 0.371094,-0.09375 0.652344,-0.1875 0.1875,0 0.375,0 0.46875,0 0.09375,0 0.28125,-0.09375 0.5625,-0.1875 0.28125,-0.09375 0.46875,-0.09375 0.75,-0.1875 0.1875,0 0.375,0 0.46875,0 0.28125,-0.09375 1.214844,-0.28125 2.808594,-0.5625 h 0.1875 c 0.652343,-0.1875 1.496093,-0.28125 2.339843,-0.28125 0.1875,-0.09375 0.375,-0.09375 0.5625,-0.1875 0.1875,0 0.652344,0 1.402344,-0.09375 l 1.03125,-0.09375 c 0.5625,-0.1875 1.308594,-0.28125 2.339844,-0.28125 1.683594,-0.1875 2.808594,-0.933594 3.277344,-2.246094 0.28125,-0.5625 0.375,-1.125 0.375,-1.589844 0,-0.75 -0.28125,-1.5 -0.75,-2.15625 -0.65625,-1.027344 -1.683594,-1.496094 -3.089844,-1.496094 l -1.03125,0.09375 c -1.027344,0 -1.871094,0.09375 -2.714844,0.28125 l -3.277344,0.375 C 14.699219,-25.28125 13.390625,-25 12.921875,-24.90625 c -0.375,0 -0.84375,0.09375 -1.3125,0.28125 l -0.84375,0.09375 c -0.277344,0 -0.746094,0.09375 -1.308594,0.375 -0.1875,0 -0.375,0 -0.46875,0.09375 l 0.28125,-2.808594 c 0.09375,-0.65625 0.1875,-1.777344 0.1875,-3.277344 v -6.367187 l 0.46875,-0.09375 c 1.027344,-0.28125 1.683594,-0.375 1.871094,-0.375 0.1875,0 0.375,0 0.46875,-0.09375 0.09375,0 0.28125,0 0.375,-0.09375 0.09375,0 0.28125,0 0.375,0 0.46875,-0.1875 0.933594,-0.28125 1.402344,-0.28125 0.09375,0 0.28125,0 0.5625,-0.09375 0.1875,0 0.46875,0 0.75,0 0.28125,0 0.46875,0 0.75,-0.08984 0.277343,0 0.839843,0 1.683593,0 1.777344,-0.09375 2.902344,-0.75 3.464844,-1.96875 0.28125,-0.65625 0.46875,-1.214843 0.46875,-1.871093 0,-0.65625 -0.1875,-1.21875 -0.5625,-1.875 -0.65625,-1.214844 -1.78125,-1.777344 -3.277344,-1.777344 -1.21875,0 -1.871093,0 -2.152343,0 -0.28125,0.09375 -0.5625,0.09375 -0.75,0.09375 -0.75,0 -1.3125,0.09375 -1.78125,0.1875 -0.933594,0 -1.589844,0.09375 -2.058594,0.28125 -0.09375,0.09375 -0.1875,0.09375 -0.28125,0.09375 -0.1875,0.09375 -0.375,0.09375 -0.46875,0.09375 -0.09375,0.09375 -0.1875,0.09375 -0.1875,0.09375 -0.08984,0 -0.464844,0.09375 -1.121094,0.1875 0,-7.398438 0,-11.332032 0,-11.703125 -0.09375,-0.28125 -0.09375,-0.65625 -0.09375,-0.9375 0.375,0 0.84375,-0.09375 1.308594,-0.28125 l 1.125,-0.28125 c 0.375,-0.1875 0.75,-0.28125 1.21875,-0.28125 0.839844,-0.28125 2.433594,-0.375 4.773437,-0.375 0.46875,0 0.75,0 0.84375,0 0.09375,0.09375 1.027344,0.09375 2.714844,0.09375 1.683594,-0.09375 2.808594,-0.746094 3.464844,-1.964844 0.375,-0.65625 0.5625,-1.21875 0.5625,-1.871094 0,-0.65625 -0.1875,-1.21875 -0.5625,-1.875 -0.65625,-1.214843 -1.6875,-1.777343 -3.183594,-1.777343 h -3.183594 c -0.46875,-0.09375 -0.9375,-0.09375 -1.40625,-0.09375 l -2.527343,0.09375 c -0.28125,0 -1.214844,0.09375 -2.808594,0.375 -0.65625,0.09375 -1.214844,0.1875 -1.683594,0.371093 l -0.1875,0.09375 c -0.375,0.09375 -0.75,0.09375 -1.03125,0.1875 -0.28125,0.09375 -0.5625,0.1875 -0.65625,0.28125 -0.746093,-0.652343 -1.683593,-1.027343 -2.714843,-1.027343 h -0.375 c -0.746094,0 -1.496094,0.375 -2.152344,1.027343 -0.75,0.75 -1.125,1.6875 -1.125,2.714844 0,0.1875 0,1.03125 0.09375,2.53125 0,1.496094 0,2.433594 0.09375,2.714844 0,0.28125 0,4.867187 0,13.574219 0,9.082031 -0.09375,14.230468 -0.1875,15.261718 0,0.5625 -0.09375,0.9375 -0.1875,1.21875 0,0.558594 -0.183594,2.339844 -0.558594,5.335938 v 0.75 c 0,1.214844 0.46875,2.246094 1.308594,2.996094 0.84375,1.027343 1.875,1.496093 3.089844,1.496093 z m 0,0"
           id="path150" />
      </g>
    </g>
  </g>
  <g
     fill="#bf2594"
     fill-opacity="1"
     id="g164"
     transform="translate(0,-14.954978)">
    <g
       transform="translate(277.47869,290.47342)"
       id="g162">
      <g
         id="g160">
        <path
           d="m 34.457031,-12.921875 c 0.652344,0 1.308594,-0.1875 1.964844,-0.5625 1.125,-0.652344 1.683594,-1.683594 1.683594,-2.996094 l -0.375,-6.363281 -0.09375,-0.46875 c 0,-0.46875 0,-0.9375 0,-1.21875 -0.08984,-0.28125 -0.08984,-0.65625 -0.08984,-0.9375 0,-0.277344 0,-0.558594 0,-0.933594 -0.09375,-0.28125 -0.09375,-1.40625 -0.09375,-3.183594 0,-2.433593 0,-3.933593 -0.09375,-4.496093 0,-1.964844 0,-3.089844 0,-3.464844 -0.09375,-0.371094 -0.09375,-0.652344 -0.09375,-0.933594 0,-0.84375 0,-1.59375 -0.09375,-2.152343 0,-1.59375 -0.09375,-2.71875 -0.1875,-3.464844 v -0.84375 c 0,-0.84375 -0.09375,-1.59375 -0.1875,-2.058594 0,-0.75 -0.09375,-1.40625 -0.1875,-2.0625 0,-0.839844 -0.09375,-1.496094 -0.1875,-1.777344 0,-0.84375 0,-1.40625 0,-1.59375 -0.09375,-0.09375 -0.09375,-0.183594 -0.09375,-0.277344 l -0.09375,-1.78125 c 0,-0.65625 -0.09375,-1.214843 -0.1875,-1.589843 0,-0.75 -0.1875,-1.78125 -0.46875,-2.996094 -0.09375,-0.65625 -0.28125,-1.125 -0.46875,-1.5 -0.1875,-0.75 -0.46875,-1.308594 -0.933594,-1.683594 -0.84375,-1.03125 -1.96875,-1.5 -3.277343,-1.5 -0.46875,0 -0.75,0 -0.75,0 -0.09375,0 -0.1875,0 -0.28125,0.09375 -0.09375,0.09375 -0.28125,0.09375 -0.375,0.09375 -1.402344,0.46875 -2.621094,1.96875 -3.464844,4.308594 l -1.589844,4.304687 -0.84375,1.875 c 0,0.09375 -0.09375,0.375 -0.1875,0.652344 -0.1875,0.375 -0.375,0.75 -0.46875,1.03125 -0.28125,0.65625 -0.558594,1.40625 -0.933594,2.246094 l -0.28125,0.84375 c -0.375,1.03125 -0.75,1.964844 -1.125,2.808594 -0.09375,0.46875 -0.375,1.125 -0.65625,1.78125 -0.375,0.746094 -0.558594,1.121094 -0.558594,1.214844 -0.09375,0.09375 -0.09375,0.1875 -0.1875,0.28125 -0.09375,0.09375 -0.09375,0.09375 -0.09375,0.1875 -0.09375,-0.28125 -0.1875,-0.46875 -0.28125,-0.5625 -0.46875,-1.308594 -0.75,-2.058594 -0.9375,-2.152344 -0.09375,-0.46875 -0.375,-0.9375 -0.65625,-1.40625 -0.09375,-0.1875 -0.1875,-0.464844 -0.28125,-0.746094 -0.1875,-0.28125 -0.375,-0.5625 -0.558593,-0.9375 -0.1875,-0.28125 -0.28125,-0.5625 -0.375,-0.75 -0.09375,-0.09375 -0.1875,-0.28125 -0.28125,-0.5625 -0.1875,-0.1875 -0.46875,-0.652344 -0.75,-1.402344 -0.375,-0.75 -0.75,-1.40625 -1.125,-2.058594 l -0.933594,-1.78125 c -0.09375,-0.28125 -0.1875,-0.5625 -0.375,-1.03125 -0.28125,-0.371093 -0.46875,-0.652343 -0.5625,-0.933593 -0.1875,-0.1875 -0.375,-0.375 -0.46875,-0.65625 -0.28125,-0.5625 -0.46875,-1.03125 -0.65625,-1.3125 -0.1875,-0.277344 -0.371094,-0.558594 -0.464844,-0.933594 -0.09375,-0.28125 -0.28125,-0.5625 -0.375,-0.65625 -0.375,-0.84375 -0.75,-1.40625 -1.03125,-1.777344 -0.09375,-0.28125 -0.28125,-0.65625 -0.65625,-1.03125 -0.839843,-1.21875 -1.871093,-1.78125 -3.183593,-1.78125 -0.375,0 -0.839844,0.09375 -1.308594,0.28125 -1.03125,0.09375 -1.875,0.65625 -2.433594,1.59375 -0.28125,0.46875 -0.46875,1.03125 -0.46875,1.683594 0,0.46875 0.09375,0.9375 0.1875,1.40625 l 0.09375,0.09375 v 0.65625 c 0.09375,0.277344 0.1875,0.652344 0.1875,1.121094 0,0.1875 0,0.375 0.09375,0.5625 0,0.1875 0,0.9375 0,2.246093 0.089844,0.28125 0.089844,0.84375 0.089844,1.5 0,0.1875 0,0.375 0.09375,0.65625 0,0.277344 0,0.933594 0,1.777344 0,0.9375 0,1.496094 0.09375,1.777344 0,0.28125 0,1.59375 0,3.933594 0,2.339844 0,3.746094 0.09375,4.027344 0,0.375 0,2.246093 0,5.523437 0.09375,0.46875 0.09375,1.871094 0.09375,4.210937 0,1.78125 0,2.8125 0.09375,3.089844 0,0.375 0,4.214844 0,11.425782 0,1.496093 0.65625,2.621093 1.875,3.277343 0.652344,0.371094 1.402344,0.558594 2.058594,0.558594 0.5625,0 1.125,-0.1875 1.683593,-0.464844 1.21875,-0.75 1.875,-1.875 1.875,-3.464843 0,-7.117188 0,-10.863282 0,-11.238282 -0.09375,-0.277344 -0.09375,-1.402344 -0.09375,-3.277344 0,-2.339843 0,-3.835937 -0.09375,-4.304687 0,-3.277344 0,-5.054687 0,-5.429687 -0.09375,-0.28125 -0.09375,-1.59375 -0.09375,-3.839844 l 0.9375,1.777344 1.777344,3.746093 c 0.09375,0 0.375,0.65625 0.84375,1.875 0.28125,0.652344 0.5625,1.308594 1.027344,1.964844 0.375,0.65625 0.84375,1.402344 1.40625,2.058594 1.21875,1.03125 2.339843,1.5 3.464843,1.5 0.65625,0 1.308594,-0.09375 1.964844,-0.375 0.65625,-0.1875 1.21875,-0.5625 1.78125,-1.125 0.08984,-0.09375 0.277344,-0.28125 0.558594,-0.46875 0.1875,-0.1875 0.375,-0.375 0.5625,-0.652344 0.1875,-0.28125 0.375,-0.5625 0.5625,-0.84375 0.09375,-0.28125 0.28125,-0.5625 0.5625,-0.9375 0.28125,-0.375 0.46875,-0.75 0.65625,-1.214844 0.183594,-0.375 0.464844,-0.9375 0.746094,-1.59375 l 0.375,-0.65625 1.03125,-2.339843 0.75,-2.246094 c 0.09375,-0.09375 0.277344,-0.46875 0.464844,-0.9375 l 0.5625,-1.496094 v 0.746094 c 0.09375,0.46875 0.1875,1.125 0.1875,1.96875 v 0.65625 c 0.09375,0.839844 0.1875,1.964844 0.1875,3.460937 0.09375,0.46875 0.09375,1.21875 0.09375,2.0625 l 0.09375,2.152344 c 0,0.28125 0,0.5625 0.09375,0.9375 0,0.375 0,1.871094 0,4.398437 0,2.527344 0,4.027344 0.09375,4.402344 0,0.375 0,0.75 0,1.027344 0,0.375 0,0.75 0,1.03125 0.1875,1.964844 0.28125,3.464844 0.28125,4.496094 0.1875,1.402344 0.28125,2.433594 0.28125,3.183594 0.09375,1.589843 0.84375,2.621093 2.058593,3.273437 0.65625,0.28125 1.21875,0.375 1.78125,0.375 z m 0,0"
           id="path158" />
      </g>
    </g>
  </g>
  <g
     fill="#bf2594"
     fill-opacity="1"
     id="g172"
     transform="translate(0,-14.954978)">
    <g
       transform="translate(321.10599,290.47342)"
       id="g170">
      <g
         id="g168">
        <path
           d="m 17.882812,-21.441406 h -1.589843 c -0.09375,-0.09375 -1.21875,-0.1875 -3.183594,-0.46875 -0.09375,0 -0.28125,0 -0.5625,-0.09375 -0.28125,-0.09375 -0.46875,-0.1875 -0.75,-0.28125 -0.28125,-0.09375 -0.65625,-0.277344 -1.03125,-0.371094 -0.09375,0 -0.277344,-0.09375 -0.464844,-0.1875 -0.28125,-0.09375 -0.5625,-0.1875 -0.9375,-0.1875 0,-5.152344 0,-7.867188 0,-8.242188 -0.09375,-0.28125 -0.09375,-0.558593 -0.09375,-0.652343 v -3.089844 c 0.375,0 0.65625,0.09375 0.84375,0.1875 0.375,0 0.746094,0.09375 1.214844,0.277344 0.1875,0 0.46875,0.09375 0.75,0.28125 0.9375,0.28125 1.777344,0.5625 2.433594,0.84375 0.375,0.09375 0.9375,0.28125 1.6875,0.65625 l 1.402343,0.65625 c 0.75,0.28125 1.59375,0.839843 2.527344,1.683593 l 0.5625,0.46875 c 0.5625,0.46875 1.125,1.125 1.59375,1.777344 C 23.125,-27.058594 23.5,-26.027344 23.5,-25 c 0,0.375 -0.09375,0.65625 -0.1875,0.75 0,0.1875 -0.09375,0.375 -0.28125,0.65625 -0.1875,0.28125 -0.558594,0.5625 -1.121094,0.9375 l -1.96875,0.933594 c -0.09375,0 -0.28125,0 -0.375,0 -0.183594,0.09375 -0.371094,0.09375 -0.464844,0.09375 -0.09375,0.09375 -0.28125,0.09375 -0.375,0.09375 -0.1875,0.09375 -0.46875,0.09375 -0.84375,0.09375 z m -4.308593,-22.097656 c -0.652344,0 -1.121094,0 -1.402344,-0.08984 -1.21875,-0.1875 -1.871094,-0.28125 -1.964844,-0.375 -0.09375,-0.09375 -0.375,-0.09375 -0.75,-0.09375 0,-0.09375 -0.09375,-0.09375 -0.28125,-0.09375 0,-1.03125 0,-1.875 -0.09375,-2.527344 0,-1.78125 0,-2.8125 0,-3.089844 -0.09375,-0.28125 -0.09375,-0.65625 -0.09375,-0.9375 0,-0.28125 0,-0.65625 0,-0.9375 -0.09375,-0.28125 -0.09375,-0.5625 -0.09375,-0.84375 0,-0.277344 0,-0.652344 0,-0.933594 -0.09375,-0.28125 -0.09375,-0.5625 -0.09375,-0.84375 0,-0.28125 0,-0.46875 0,-0.75 -0.09375,-0.28125 -0.09375,-0.46875 -0.09375,-0.652343 0,-0.09375 0,-0.1875 -0.09375,-0.1875 0.09375,-0.09375 0.09375,-0.09375 0.1875,-0.1875 0.09375,0 0.1875,0 0.28125,-0.09375 0.09375,0 0.28125,0 0.5625,-0.09375 0.28125,0 0.75,0 1.402344,0 0.65625,0 1.125,0 1.5,0.09375 l 0.1875,0.09375 c 0.5625,0.09375 1.027344,0.1875 1.496094,0.28125 0.375,0.1875 0.75,0.371093 1.125,0.558593 l 0.1875,0.09375 c 0.46875,0.1875 1.214843,0.65625 2.246093,1.5 0.28125,0.1875 0.46875,0.375 0.65625,0.5625 0.09375,0.1875 0.28125,0.375 0.375,0.46875 0.65625,0.652344 1.027344,1.308594 1.214844,2.152344 0.1875,0.375 0.28125,0.65625 0.375,0.933594 0,0.28125 0,0.65625 0,1.125 0,0.28125 -0.09375,0.5625 -0.1875,0.84375 0,0.375 -0.1875,0.75 -0.46875,1.121094 -0.09375,0.09375 -0.1875,0.28125 -0.277344,0.46875 -0.09375,0.28125 -0.65625,0.65625 -1.6875,1.3125 -0.46875,0.28125 -1.03125,0.5625 -1.683593,0.75 l -1.5,0.28125 z m 4.496093,29.589843 0.5625,-0.09375 1.683594,-0.09375 c 0.9375,-0.1875 1.875,-0.46875 2.902344,-0.84375 l 1.125,-0.46875 c 0.75,-0.375 1.402344,-0.75 1.871094,-1.121093 1.40625,-0.84375 2.339844,-1.875 2.996094,-2.90625 1.125,-1.496094 1.6875,-2.996094 1.6875,-4.398438 l 0.1875,-1.3125 c 0,-0.464844 -0.09375,-0.839844 -0.1875,-1.121094 -0.09375,-1.03125 -0.1875,-1.875 -0.46875,-2.527344 -0.28125,-0.65625 -0.65625,-1.3125 -1.03125,-1.875 -0.46875,-0.933593 -0.933594,-1.777343 -1.402344,-2.433593 -0.46875,-0.65625 -1.03125,-1.125 -1.5,-1.496094 l -0.5625,-0.5625 c -0.746094,-0.84375 -1.589844,-1.5 -2.433594,-2.0625 l -0.46875,-0.28125 c -0.375,-0.371094 -0.746094,-0.652344 -1.214844,-0.839844 l 1.964844,-1.5 c 1.21875,-1.027343 2.246094,-2.339843 2.996094,-3.742187 0.75,-1.875 1.125,-3.464844 1.125,-4.683594 0,-1.777344 -0.28125,-3.371094 -0.84375,-4.867188 -1.03125,-2.621093 -2.527344,-4.683593 -4.496094,-6.179687 -0.652344,-0.65625 -1.308594,-1.125 -1.964844,-1.40625 -1.214844,-0.933594 -2.621094,-1.589844 -4.210937,-2.058594 -0.75,-0.28125 -1.5,-0.5625 -2.25,-0.75 -0.746094,-0.09375 -1.402344,-0.1875 -1.964844,-0.1875 h -1.964844 c -1.40625,0 -2.34375,0.09375 -2.808593,0.375 -0.5625,0 -1.03125,0.09375 -1.3125,0.375 -0.5625,-0.28125 -1.125,-0.375 -1.589844,-0.375 -0.65625,0 -1.40625,0.28125 -2.0625,0.75 -0.933594,0.75 -1.402344,1.777344 -1.402344,3.183594 v 1.683594 c 0.09375,0.28125 0.09375,0.65625 0.09375,1.125 v 0.5625 c 0.09375,0.558593 0.1875,1.402343 0.1875,2.527343 0.09375,0.375 0.09375,0.84375 0.1875,1.402344 0,0.5625 0,1.21875 0,1.875 0,0.1875 0,0.46875 0.089844,0.746094 0,0.28125 0,1.3125 0,2.996094 0.09375,0.5625 0.09375,1.59375 0.09375,2.996094 0,0.9375 0,1.59375 0.09375,1.96875 0,0.375 0,2.152343 0,5.335937 0,3.183594 0,4.960937 0.09375,5.335937 0,0.375 0,4.683594 0,12.828126 0,1.3125 0.375,2.339843 1.21875,2.996093 0.75,0.65625 1.589844,1.03125 2.527344,1.03125 1.21875,-0.09375 2.152343,-0.5625 2.808593,-1.40625 l 3.277344,0.9375 2.246094,0.375 c 0.9375,0 1.6875,0.09375 2.15625,0.1875 z m 0,0"
           id="path166" />
      </g>
    </g>
  </g>
  <g
     fill="#bf2594"
     fill-opacity="1"
     id="g180"
     transform="translate(0,-14.954978)">
    <g
       transform="translate(357.71181,290.47342)"
       id="g178">
      <g
         id="g176">
        <path
           d="m 5.429688,-15.449219 c 0.65625,0 1.3125,-0.1875 1.96875,-0.46875 l 1.027343,-0.46875 c 0.375,-0.09375 0.65625,-0.09375 0.9375,-0.183593 0.1875,0 0.375,0 0.46875,0 0.09375,0 0.28125,-0.09375 0.46875,-0.1875 0.1875,-0.09375 0.371094,-0.09375 0.652344,-0.1875 0.1875,0 0.375,0 0.46875,0 0.09375,0 0.28125,-0.09375 0.5625,-0.1875 0.28125,-0.09375 0.46875,-0.09375 0.75,-0.1875 0.1875,0 0.375,0 0.46875,0 0.28125,-0.09375 1.214844,-0.28125 2.808594,-0.5625 h 0.1875 c 0.652343,-0.1875 1.496093,-0.28125 2.339843,-0.28125 0.1875,-0.09375 0.375,-0.09375 0.5625,-0.1875 0.1875,0 0.652344,0 1.402344,-0.09375 l 1.03125,-0.09375 c 0.5625,-0.1875 1.308594,-0.28125 2.339844,-0.28125 1.683594,-0.1875 2.808594,-0.933594 3.277344,-2.246094 0.28125,-0.5625 0.375,-1.125 0.375,-1.589844 0,-0.75 -0.28125,-1.5 -0.75,-2.15625 -0.65625,-1.027344 -1.683594,-1.496094 -3.089844,-1.496094 l -1.03125,0.09375 c -1.027344,0 -1.871094,0.09375 -2.714844,0.28125 l -3.277344,0.375 C 14.699219,-25.28125 13.390625,-25 12.921875,-24.90625 c -0.375,0 -0.84375,0.09375 -1.3125,0.28125 l -0.84375,0.09375 c -0.277344,0 -0.746094,0.09375 -1.308594,0.375 -0.1875,0 -0.375,0 -0.46875,0.09375 l 0.28125,-2.808594 c 0.09375,-0.65625 0.1875,-1.777344 0.1875,-3.277344 v -6.367187 l 0.46875,-0.09375 c 1.027344,-0.28125 1.683594,-0.375 1.871094,-0.375 0.1875,0 0.375,0 0.46875,-0.09375 0.09375,0 0.28125,0 0.375,-0.09375 0.09375,0 0.28125,0 0.375,0 0.46875,-0.1875 0.933594,-0.28125 1.402344,-0.28125 0.09375,0 0.28125,0 0.5625,-0.09375 0.1875,0 0.46875,0 0.75,0 0.28125,0 0.46875,0 0.75,-0.08984 0.277343,0 0.839843,0 1.683593,0 1.777344,-0.09375 2.902344,-0.75 3.464844,-1.96875 0.28125,-0.65625 0.46875,-1.214843 0.46875,-1.871093 0,-0.65625 -0.1875,-1.21875 -0.5625,-1.875 -0.65625,-1.214844 -1.78125,-1.777344 -3.277344,-1.777344 -1.21875,0 -1.871093,0 -2.152343,0 -0.28125,0.09375 -0.5625,0.09375 -0.75,0.09375 -0.75,0 -1.3125,0.09375 -1.78125,0.1875 -0.933594,0 -1.589844,0.09375 -2.058594,0.28125 -0.09375,0.09375 -0.1875,0.09375 -0.28125,0.09375 -0.1875,0.09375 -0.375,0.09375 -0.46875,0.09375 -0.09375,0.09375 -0.1875,0.09375 -0.1875,0.09375 -0.08984,0 -0.464844,0.09375 -1.121094,0.1875 0,-7.398438 0,-11.332032 0,-11.703125 -0.09375,-0.28125 -0.09375,-0.65625 -0.09375,-0.9375 0.375,0 0.84375,-0.09375 1.308594,-0.28125 l 1.125,-0.28125 c 0.375,-0.1875 0.75,-0.28125 1.21875,-0.28125 0.839844,-0.28125 2.433594,-0.375 4.773437,-0.375 0.46875,0 0.75,0 0.84375,0 0.09375,0.09375 1.027344,0.09375 2.714844,0.09375 1.683594,-0.09375 2.808594,-0.746094 3.464844,-1.964844 0.375,-0.65625 0.5625,-1.21875 0.5625,-1.871094 0,-0.65625 -0.1875,-1.21875 -0.5625,-1.875 -0.65625,-1.214843 -1.6875,-1.777343 -3.183594,-1.777343 h -3.183594 c -0.46875,-0.09375 -0.9375,-0.09375 -1.40625,-0.09375 l -2.527343,0.09375 c -0.28125,0 -1.214844,0.09375 -2.808594,0.375 -0.65625,0.09375 -1.214844,0.1875 -1.683594,0.371093 l -0.1875,0.09375 c -0.375,0.09375 -0.75,0.09375 -1.03125,0.1875 -0.28125,0.09375 -0.5625,0.1875 -0.65625,0.28125 -0.746093,-0.652343 -1.683593,-1.027343 -2.714843,-1.027343 h -0.375 c -0.746094,0 -1.496094,0.375 -2.152344,1.027343 -0.75,0.75 -1.125,1.6875 -1.125,2.714844 0,0.1875 0,1.03125 0.09375,2.53125 0,1.496094 0,2.433594 0.09375,2.714844 0,0.28125 0,4.867187 0,13.574219 0,9.082031 -0.09375,14.230468 -0.1875,15.261718 0,0.5625 -0.09375,0.9375 -0.1875,1.21875 0,0.558594 -0.183594,2.339844 -0.558594,5.335938 v 0.75 c 0,1.214844 0.46875,2.246094 1.308594,2.996094 0.84375,1.027343 1.875,1.496093 3.089844,1.496093 z m 0,0"
           id="path174" />
      </g>
    </g>
  </g>
  <g
     fill="#bf2594"
     fill-opacity="1"
     id="g188"
     transform="translate(0,-14.954978)">
    <g
       transform="translate(390.66645,290.47342)"
       id="g186">
      <g
         id="g184">
        <path
           d="m 14.980469,-41.007812 h -2.339844 c -0.28125,-0.09375 -0.65625,-0.1875 -1.03125,-0.1875 -0.1875,-0.09375 -0.375,-0.1875 -0.5625,-0.1875 -0.46875,-0.28125 -1.027344,-0.375 -1.496094,-0.375 h -0.5625 v -1.59375 c 0.09375,-0.933594 0.09375,-2.246094 0.09375,-3.929688 0,-1.78125 0,-2.808594 0,-3.089844 -0.09375,-0.28125 -0.09375,-0.75 -0.09375,-1.5 0,-0.65625 0,-1.308594 -0.09375,-1.777344 l 1.03125,-1.03125 c 0.09375,0 0.1875,-0.09375 0.375,-0.1875 0.09375,-0.09375 0.277344,-0.1875 0.464844,-0.1875 0.375,-0.1875 1.125,-0.28125 2.15625,-0.28125 0.375,0 0.746094,0.09375 1.027344,0.28125 0.28125,0 0.46875,0 0.65625,0.09375 0.09375,0.09375 0.1875,0.1875 0.28125,0.28125 0.375,0.1875 0.65625,0.375 0.84375,0.5625 0.5625,0.28125 1.308593,1.03125 2.339843,2.433594 0.1875,0.28125 0.375,0.5625 0.5625,0.9375 0.1875,0.375 0.375,0.84375 0.65625,1.402344 0.1875,0.5625 0.277344,1.125 0.371094,1.78125 v 1.121094 c 0,0.75 0,1.21875 0,1.5 -0.09375,0.28125 -0.183594,0.84375 -0.464844,1.496094 -0.09375,0.375 -0.28125,0.65625 -0.375,0.75 -0.1875,0.1875 -0.375,0.28125 -0.46875,0.375 -0.09375,0.09375 -0.1875,0.1875 -0.28125,0.28125 -0.09375,0.09375 -0.28125,0.09375 -0.46875,0.1875 -0.1875,0.09375 -0.375,0.1875 -0.65625,0.28125 -0.28125,0.09375 -0.558593,0.1875 -0.839843,0.28125 -0.28125,0.09375 -0.65625,0.1875 -1.125,0.28125 z m 10.488281,29.492187 c 1.121094,0 2.058594,-0.375 2.714844,-1.125 0.652344,-0.75 0.933594,-1.589844 0.933594,-2.433594 0,-0.46875 -0.09375,-1.03125 -0.28125,-1.589843 -0.09375,-0.5625 -0.1875,-0.9375 -0.28125,-1.125 -0.08984,-0.09375 -0.183594,-0.28125 -0.277344,-0.46875 -0.09375,-0.09375 -0.1875,-0.28125 -0.28125,-0.5625 -0.1875,-0.5625 -0.28125,-0.839844 -0.375,-0.933594 -0.28125,-0.75 -0.5625,-1.5 -0.9375,-2.15625 -0.5625,-1.496094 -1.308594,-2.902344 -2.246094,-4.210938 -0.46875,-1.125 -1.3125,-2.34375 -2.527344,-3.746094 -0.46875,-0.75 -0.9375,-1.40625 -1.5,-1.871093 -0.65625,-0.84375 -1.402344,-1.59375 -2.246094,-2.25 l 0.375,-0.09375 c 0.84375,-0.28125 1.683594,-0.652344 2.714844,-1.121094 l 0.375,-0.1875 c 1.308594,-0.84375 2.339844,-1.6875 2.996094,-2.527344 1.121094,-1.5 1.777344,-2.808593 1.871094,-3.839843 0.46875,-1.125 0.65625,-2.433594 0.65625,-3.839844 v -2.058594 c 0,-0.75 -0.09375,-1.5 -0.28125,-2.246094 -0.1875,-0.75 -0.375,-1.5 -0.65625,-2.25 -0.28125,-0.746094 -0.5625,-1.308594 -0.839844,-1.777344 -0.375,-0.84375 -0.75,-1.5 -1.125,-1.964843 -0.46875,-0.75 -0.9375,-1.3125 -1.3125,-1.6875 -1.027344,-1.402344 -2.058594,-2.339844 -3.089844,-2.808594 -0.558594,-0.46875 -1.121094,-0.84375 -1.777344,-1.03125 -1.871093,-0.933594 -3.933593,-1.402344 -6.273437,-1.402344 -1.21875,0 -2.527344,0.28125 -3.933594,0.84375 -0.09375,0 -0.1875,0 -0.28125,0.09375 -0.089843,0.09375 -0.089843,0.09375 -0.183593,0.09375 -0.65625,-0.75 -1.59375,-1.125 -2.71875,-1.125 -1.121094,0 -2.058594,0.46875 -2.902344,1.3125 -0.558594,0.652344 -0.839844,1.496094 -0.839844,2.433594 l 0.09375,1.027344 0.09375,0.09375 c 0,0.09375 0,0.09375 0.09375,0.1875 0,0.09375 0,0.1875 0,0.28125 0,0.1875 0,0.375 0.09375,0.46875 0,0.09375 0,0.28125 0,0.46875 0,0.1875 0,0.375 0.09375,0.5625 0,0.1875 0,0.652343 0,1.308593 0,0.65625 0,1.125 0.09375,1.3125 0,0.28125 0,0.75 0,1.589844 0,0.84375 0,1.3125 0.089844,1.59375 0,0.28125 0,1.308594 0,2.996094 0,1.683594 0,2.996094 -0.089844,3.929688 0,6.460937 0,10.300781 -0.09375,11.332031 -0.09375,0.464843 -0.09375,0.839843 -0.09375,1.121093 0,0.375 0,0.75 0,1.125 -0.09375,0.375 -0.09375,0.75 -0.09375,1.125 0,0.464844 0,0.839844 0,1.214844 -0.09375,0.375 -0.09375,0.84375 -0.09375,1.3125 0,0.46875 0,1.214844 -0.09375,2.152344 v 6.929688 c 0.09375,0.1875 0.09375,0.46875 0.09375,0.746093 0.09375,1.59375 0.839844,2.71875 2.058594,3.371094 0.65625,0.28125 1.21875,0.375 1.777344,0.375 0.65625,0 1.3125,-0.1875 1.96875,-0.5625 1.121093,-0.652344 1.683593,-1.683594 1.683593,-3.089844 0,-0.839843 0,-1.214843 -0.09375,-1.308593 v -6.273438 l 0.28125,-7.210938 c 0.375,0.09375 0.84375,0.28125 1.40625,0.5625 l 0.28125,0.09375 c 0.839844,0.375 1.589844,0.84375 2.058594,1.3125 0.375,0.1875 0.75,0.558594 1.121094,1.027344 0.375,0.1875 0.75,0.5625 1.125,1.21875 0.375,0.375 0.75,0.84375 1.21875,1.402344 0.46875,0.5625 0.839843,1.125 1.121093,1.59375 0.28125,0.46875 0.65625,1.03125 0.9375,1.589844 0.65625,1.03125 1.3125,2.15625 1.777344,3.371094 0.28125,0.375 0.5625,1.125 1.03125,2.339843 l 0.1875,0.46875 c 0.28125,0.375 0.375,0.75 0.375,1.03125 0.1875,0.09375 0.28125,0.375 0.375,0.75 0.65625,1.777344 1.871094,2.621094 3.652344,2.714844 z m 0,0"
           id="path182" />
      </g>
    </g>
  </g>
  <g
     fill="#bf2594"
     fill-opacity="1"
     id="g194"
     transform="translate(0,-14.954978)">
    <g
       transform="translate(425.39986,290.47342)"
       id="g192">
      <g
         id="g190" />
    </g>
  </g>
  <g
     fill="#bf2594"
     fill-opacity="1"
     id="g202"
     transform="translate(0,-14.954978)">
    <g
       transform="translate(448.80531,290.47342)"
       id="g200">
      <g
         id="g198">
        <path
           d="m 24.8125,-11.984375 c 0.65625,0 1.214844,-0.1875 1.777344,-0.46875 1.21875,-0.75 1.875,-1.871094 1.875,-3.371094 0,-7.019531 0,-10.671875 0,-11.046875 -0.09375,-0.375 -0.09375,-2.621094 -0.09375,-6.648437 0,-4.027344 0,-6.179688 0,-6.554688 -0.09375,-0.375 -0.09375,-1.121093 -0.09375,-2.152343 0,-1.402344 0,-2.433594 -0.09375,-3.089844 0,-1.871094 0,-2.996094 0,-3.371094 -0.09375,-0.28125 -0.09375,-0.5625 -0.09375,-0.84375 0,-0.839844 0,-1.589844 -0.09375,-2.058594 0,-1.683594 0,-2.902344 -0.09375,-3.746094 -0.09375,-0.839843 -0.1875,-1.496093 -0.28125,-1.964843 0,-0.75 0,-1.402344 -0.09375,-1.871094 -0.09375,-0.46875 -0.28125,-0.84375 -0.46875,-1.125 -0.5625,-1.589844 -1.777344,-2.433594 -3.746094,-2.433594 -1.027344,0 -1.964844,0.46875 -2.714844,1.308594 -0.5625,0.65625 -0.84375,1.3125 -0.84375,2.0625 0,0.46875 0.09375,1.027344 0.375,1.683594 0,0.09375 0,0.1875 0.09375,0.28125 0,0.09375 0,0.28125 0,0.5625 0,0.28125 0,0.46875 0,0.75 0.09375,0.839843 0.1875,1.777343 0.1875,2.902343 0.09375,0.5625 0.09375,1.214844 0.09375,1.964844 0.09375,0.46875 0.09375,1.125 0.09375,1.964844 0,0.1875 0,0.46875 0.09375,0.75 0,0.28125 0,1.40625 0,3.277344 0.09375,0.5625 0.09375,1.871094 0.09375,3.839844 -0.28125,-0.09375 -0.46875,-0.1875 -0.75,-0.1875 -0.933594,0 -2.527344,0.1875 -4.773437,0.5625 -0.28125,0 -0.5625,0 -0.84375,0 -0.375,0.09375 -0.75,0.1875 -1.027344,0.28125 -0.46875,0 -1.03125,0.09375 -1.5,0.183593 -1.21875,0.1875 -1.871094,0.28125 -2.058594,0.28125 -0.1875,0 -0.375,0 -0.5625,0 -0.1875,0.09375 -0.375,0.09375 -0.5625,0.09375 0,-4.492187 0,-7.019531 -0.09375,-7.582031 0,-3.183594 0,-4.960938 0,-5.242188 -0.09375,-0.28125 -0.09375,-0.9375 -0.09375,-1.78125 0,-0.839843 0,-1.308593 0,-1.496093 -0.09375,-0.1875 -0.09375,-1.40625 -0.09375,-3.558594 0,-1.3125 -0.375,-2.339844 -1.027343,-2.996094 -0.75,-0.65625 -1.6875,-1.03125 -2.71875,-1.03125 -0.933594,0 -1.777344,0.375 -2.527344,1.03125 -0.839844,0.65625 -1.214844,1.683594 -1.214844,2.996094 0,2.339844 0,3.558594 0.09375,3.746094 0,0.1875 0,1.027343 0,2.527343 0.09375,1.027344 0.1875,13.199219 0.1875,36.703126 0,1.683593 0.652344,2.902343 1.871094,3.554687 0.65625,0.375 1.3125,0.5625 1.964844,0.5625 0.65625,0 1.21875,-0.1875 1.78125,-0.5625 1.214843,-0.839844 1.871093,-1.964844 1.871093,-3.554687 v -15.636719 l 0.1875,-0.09375 c 0.46875,-0.1875 1.3125,-0.28125 2.527344,-0.28125 0.1875,-0.09375 0.375,-0.09375 0.5625,-0.1875 0.09375,0 0.28125,0 0.375,-0.09375 0.09375,0 0.46875,0 1.125,0 0.277344,-0.09375 0.464844,-0.09375 0.558594,-0.1875 0.09375,0 0.28125,0 0.375,0 0.09375,0 0.1875,0 0.375,-0.09375 0.09375,0 0.375,0 0.65625,-0.09375 0.28125,0 0.46875,0 0.5625,-0.09375 0.652343,-0.09375 1.308593,-0.1875 2.152343,-0.1875 0.5625,-0.09375 1.21875,-0.1875 1.964844,-0.1875 0.28125,-0.09375 0.5625,-0.1875 0.75,-0.1875 0,4.589843 0,7.117187 0.09375,7.398437 0,0.375 0,4.027344 0,11.046875 0,1.5 0.65625,2.621094 1.871094,3.277344 0.65625,0.28125 1.3125,0.46875 1.96875,0.46875 z m 0,0"
           id="path196" />
      </g>
    </g>
  </g>
  <g
     fill="#bf2594"
     fill-opacity="1"
     id="g210"
     transform="translate(0,-14.954978)">
    <g
       transform="translate(482.78975,290.47342)"
       id="g208">
      <g
         id="g206">
        <path
           d="m 19.101562,-36.140625 h -7.117187 l 0.9375,-3.746094 c 0.09375,-0.28125 0.28125,-0.746093 0.375,-1.402343 l 0.652344,-2.621094 0.5625,-1.875 1.03125,-3.558594 c 0,0.09375 0,0.1875 0.09375,0.1875 0,0.09375 0,0.09375 0.09375,0.1875 0.09375,0.09375 0.1875,0.46875 0.28125,0.9375 0.09375,0.5625 0.1875,0.9375 0.1875,1.125 0.09375,0 0.28125,0.652344 0.558593,1.871094 0.09375,0.1875 0.28125,0.46875 0.375,0.9375 0.09375,0.46875 0.1875,0.839844 0.1875,1.121094 0.28125,0.75 0.5625,1.78125 0.84375,2.996093 0.09375,0.375 0.1875,0.84375 0.375,1.5 0.1875,0.65625 0.28125,1.121094 0.375,1.214844 0.09375,0.1875 0.09375,0.5625 0.1875,1.125 z M 9.082031,-20.785156 c 0.09375,-0.09375 0.09375,-0.1875 0.1875,-0.28125 0,-0.09375 0,-0.1875 0,-0.375 0,-0.09375 0.09375,-0.28125 0.1875,-0.5625 0.09375,-0.1875 0.1875,-0.652344 0.28125,-1.496094 0.09375,-0.46875 0.28125,-1.875 0.46875,-4.121094 l 0.09375,-1.027344 h 10.578125 l 2.433594,7.769532 c 0.1875,0.28125 0.28125,0.65625 0.375,1.125 0.65625,1.683594 1.871094,2.527344 3.652344,2.621094 1.125,0 2.058594,-0.375 2.714844,-1.125 0.65625,-0.75 1.03125,-1.589844 1.03125,-2.433594 0,-0.46875 -0.1875,-1.21875 -0.46875,-2.152344 l -0.65625,-1.875 c -0.28125,-1.027344 -0.5625,-1.871094 -0.75,-2.527344 -0.1875,-0.5625 -0.375,-1.03125 -0.46875,-1.308594 -0.09375,-0.28125 -0.1875,-0.46875 -0.1875,-0.65625 -0.08984,-0.1875 -0.183594,-0.375 -0.277344,-0.65625 0.652344,-0.65625 1.027344,-1.5 1.027344,-2.339843 0,-0.375 -0.09375,-0.75 -0.1875,-1.125 -0.28125,-1.496094 -1.027344,-2.433594 -2.339844,-2.714844 0,-0.375 -0.09375,-0.65625 -0.1875,-0.9375 0,-0.375 0,-0.746094 -0.09375,-1.121094 -0.09375,-0.375 -0.1875,-0.65625 -0.28125,-0.9375 -0.09375,-0.1875 -0.28125,-0.84375 -0.5625,-1.871093 C 25,-43.722656 24.53125,-45.410156 24.4375,-45.972656 24.25,-46.535156 24.0625,-47.28125 23.78125,-48.125 23.5,-48.96875 23.3125,-49.53125 23.21875,-49.996094 c -0.09375,-0.46875 -0.1875,-0.75 -0.28125,-1.03125 -0.09375,-0.28125 -0.1875,-0.5625 -0.28125,-1.03125 -0.09375,-0.46875 -0.277344,-0.652344 -0.371094,-0.746094 -0.09375,-0.46875 -0.28125,-1.40625 -0.65625,-2.808593 -0.09375,-0.28125 -0.09375,-0.5625 -0.09375,-0.65625 0,-0.09375 0,-0.28125 0,-0.46875 -0.09375,-0.09375 -0.09375,-0.28125 -0.09375,-0.46875 -0.09375,-0.1875 -0.09375,-0.28125 -0.09375,-0.375 -0.09375,-0.09375 -0.09375,-0.09375 -0.09375,-0.1875 -0.09375,-0.65625 -0.1875,-1.121094 -0.375,-1.496094 0,-0.46875 -0.09375,-0.9375 -0.1875,-1.21875 0,-0.46875 -0.09375,-0.9375 -0.1875,-1.214844 -0.1875,-1.03125 -0.46875,-1.875 -0.84375,-2.625 -0.746094,-1.402343 -1.871094,-2.152343 -3.273437,-2.152343 -0.09375,-0.09375 -0.28125,-0.09375 -0.46875,-0.09375 -1.21875,0 -2.15625,0.46875 -2.996094,1.5 l -0.1875,0.375 c -0.28125,0.371093 -0.5625,0.746093 -0.65625,1.027343 -0.09375,0.375 -0.1875,0.65625 -0.28125,0.9375 -0.09375,0.28125 -0.1875,0.5625 -0.28125,0.84375 -0.09375,0.28125 -0.28125,0.464844 -0.375,0.746094 -0.09375,0.28125 -0.46875,1.40625 -0.933594,3.277344 -0.09375,0.5625 -0.28125,1.21875 -0.46875,1.875 -0.28125,0.652343 -0.65625,2.058593 -1.21875,4.023437 l -0.65625,2.0625 c 0,0.1875 -0.09375,0.464844 -0.1875,0.933594 -0.09375,0.46875 -0.183593,0.84375 -0.277343,1.125 -0.09375,0.28125 -0.1875,0.65625 -0.28125,0.9375 -0.09375,0.371094 -0.28125,0.746094 -0.375,1.121094 l -1.3125,4.964844 -0.1875,1.121093 c -0.375,1.125 -0.5625,1.78125 -0.5625,1.96875 -0.09375,0.464844 -0.183594,1.027344 -0.371094,1.589844 -1.21875,0 -2.0625,0.46875 -2.71875,1.5 -0.464844,0.746094 -0.652344,1.496094 -0.652344,2.339844 0,1.496093 0.652344,2.621093 1.871094,3.277343 0,0.746094 0,1.214844 -0.09375,1.308594 -0.09375,0.09375 -0.09375,0.28125 -0.09375,0.46875 0,0.1875 0,0.375 0,0.65625 -0.09375,0.28125 -0.09375,0.5625 -0.09375,0.75 -0.09375,0.28125 -0.09375,0.464844 -0.09375,0.652344 -0.09375,0.1875 -0.09375,0.375 -0.09375,0.5625 0,0.1875 -0.09375,0.375 -0.1875,0.65625 l -0.28125,1.496094 c -0.09375,0 -0.09375,0.09375 -0.09375,0.28125 l -0.09375,1.21875 c 0,0.75 0.1875,1.40625 0.65625,2.058594 0.9375,1.03125 1.96875,1.5 3.183594,1.5 0.65625,0 1.21875,-0.1875 1.875,-0.5625 0.933593,-0.65625 1.496093,-1.5 1.683593,-2.714844 z m 0,0"
           id="path204" />
      </g>
    </g>
  </g>
  <g
     fill="#bf2594"
     fill-opacity="1"
     id="g218"
     transform="translate(0,-14.954978)">
    <g
       transform="translate(519.39557,290.47342)"
       id="g216">
      <g
         id="g214">
        <path
           d="m 14.980469,-40.074219 h -2.339844 c -0.28125,-0.09375 -0.65625,-0.1875 -1.03125,-0.1875 -0.1875,-0.09375 -0.375,-0.1875 -0.5625,-0.1875 -0.46875,-0.277343 -1.027344,-0.371093 -1.496094,-0.371093 h -0.5625 v -1.59375 c 0.09375,-1.125 0.09375,-2.433594 0.09375,-3.933594 0,-1.777344 0,-2.808594 0,-3.089844 -0.09375,-0.277344 -0.09375,-0.746094 -0.09375,-1.496094 0,-0.75 0,-1.3125 -0.09375,-1.777344 0.28125,-0.28125 0.5625,-0.46875 0.65625,-0.65625 0.09375,-0.09375 0.1875,-0.1875 0.28125,-0.28125 0,-0.09375 0.09375,-0.09375 0.1875,-0.1875 0.09375,-0.09375 0.28125,-0.09375 0.375,-0.1875 0.09375,0 0.277344,-0.09375 0.464844,-0.1875 0.1875,-0.09375 0.375,-0.09375 0.5625,-0.1875 0.1875,0 0.375,0 0.65625,0 0.65625,0 1.21875,0.09375 1.683594,0.1875 0.09375,0.09375 0.1875,0.09375 0.375,0.09375 0.09375,0 0.28125,0 0.46875,0.09375 0.09375,0.09375 0.1875,0.1875 0.28125,0.28125 0.375,0.1875 0.65625,0.375 0.84375,0.5625 0.5625,0.28125 1.308593,1.027344 2.339843,2.433594 0.1875,0.28125 0.375,0.65625 0.5625,1.125 0.65625,1.027344 1.027344,2.433594 1.027344,4.210938 0,0.65625 0,1.125 0,1.40625 -0.09375,0.28125 -0.183594,0.839844 -0.464844,1.496094 -0.09375,0.375 -0.28125,0.65625 -0.375,0.75 -0.1875,0.1875 -0.375,0.28125 -0.46875,0.375 -0.09375,0.09375 -0.1875,0.1875 -0.28125,0.28125 -0.09375,0.09375 -0.28125,0.09375 -0.375,0.1875 -0.1875,0.09375 -0.375,0.09375 -0.46875,0.1875 -0.09375,0.09375 -0.28125,0.183593 -0.46875,0.183593 -0.1875,0.09375 -0.371093,0.09375 -0.652343,0.1875 -0.28125,0.09375 -0.65625,0.1875 -1.125,0.28125 z M 4.960938,-11.609375 c 0.65625,0 1.3125,-0.1875 1.96875,-0.5625 1.121093,-0.65625 1.683593,-1.683594 1.683593,-3.089844 0,-0.84375 0,-1.21875 -0.09375,-1.308593 v -6.273438 l 0.28125,-6.554688 0.1875,-3.839843 1.21875,0.375 c 0.746094,0.09375 1.402344,0.1875 1.871094,0.1875 0.46875,0 0.9375,0 1.21875,0 0.277344,0.09375 1.027344,0.09375 2.339844,0.09375 l 1.683593,-0.28125 c 1.21875,-0.28125 2.527344,-0.75 3.933594,-1.40625 l 0.375,-0.1875 c 1.308594,-0.839844 2.339844,-1.683594 2.996094,-2.527344 1.121094,-1.496094 1.777344,-2.808594 1.871094,-3.835937 0.46875,-1.125 0.65625,-2.4375 0.65625,-3.839844 v -2.058594 c 0,-0.75 -0.09375,-1.40625 -0.28125,-2.0625 -0.46875,-2.152344 -1.3125,-4.210938 -2.621094,-6.179688 -0.46875,-0.746093 -0.9375,-1.308593 -1.3125,-1.683593 -1.027344,-1.40625 -2.058594,-2.339844 -3.089844,-2.808594 -0.558594,-0.46875 -1.121094,-0.84375 -1.777344,-1.03125 -1.871093,-0.9375 -3.933593,-1.402344 -6.273437,-1.402344 -1.21875,0 -2.527344,0.28125 -3.933594,0.839844 -0.09375,0 -0.1875,0 -0.28125,0.09375 -0.089843,0.09375 -0.089843,0.09375 -0.183593,0.09375 -0.65625,-0.746094 -1.59375,-1.121094 -2.71875,-1.121094 -1.121094,0 -2.058594,0.464844 -2.902344,1.308594 -0.558594,0.65625 -0.839844,1.5 -0.839844,2.433594 l 0.09375,1.03125 0.09375,0.28125 c 0.09375,0.09375 0.09375,0.28125 0.09375,0.375 0,0.09375 0,0.28125 0.09375,0.375 0,0.09375 0,0.28125 0,0.46875 0,0.183593 0,0.371093 0.09375,0.558593 0,0.1875 0,0.65625 0,1.3125 0,0.65625 0,1.125 0.09375,1.308594 0,0.28125 0,0.75 0,1.59375 0,0.84375 0,1.402344 0.089844,1.683594 0,0.28125 0,1.3125 0,2.996094 0,1.40625 0,2.714844 -0.089844,3.839844 0,6.367187 0,10.113281 -0.09375,11.234374 -0.09375,0.46875 -0.09375,0.9375 -0.09375,1.40625 l -0.28125,6.742188 v 6.925781 c 0.09375,0.1875 0.09375,0.46875 0.09375,0.75 0.09375,1.59375 0.839844,2.714844 2.058594,3.371094 0.65625,0.28125 1.21875,0.375 1.777344,0.375 z m 0,0"
           id="path212" />
      </g>
    </g>
  </g>
  <g
     fill="#bf2594"
     fill-opacity="1"
     id="g226"
     transform="translate(0,-14.954978)">
    <g
       transform="translate(552.16299,290.47342)"
       id="g224">
      <g
         id="g222">
        <path
           d="m 14.980469,-40.074219 h -2.339844 c -0.28125,-0.09375 -0.65625,-0.1875 -1.03125,-0.1875 -0.1875,-0.09375 -0.375,-0.1875 -0.5625,-0.1875 -0.46875,-0.277343 -1.027344,-0.371093 -1.496094,-0.371093 h -0.5625 v -1.59375 c 0.09375,-1.125 0.09375,-2.433594 0.09375,-3.933594 0,-1.777344 0,-2.808594 0,-3.089844 -0.09375,-0.277344 -0.09375,-0.746094 -0.09375,-1.496094 0,-0.75 0,-1.3125 -0.09375,-1.777344 0.28125,-0.28125 0.5625,-0.46875 0.65625,-0.65625 0.09375,-0.09375 0.1875,-0.1875 0.28125,-0.28125 0,-0.09375 0.09375,-0.09375 0.1875,-0.1875 0.09375,-0.09375 0.28125,-0.09375 0.375,-0.1875 0.09375,0 0.277344,-0.09375 0.464844,-0.1875 0.1875,-0.09375 0.375,-0.09375 0.5625,-0.1875 0.1875,0 0.375,0 0.65625,0 0.65625,0 1.21875,0.09375 1.683594,0.1875 0.09375,0.09375 0.1875,0.09375 0.375,0.09375 0.09375,0 0.28125,0 0.46875,0.09375 0.09375,0.09375 0.1875,0.1875 0.28125,0.28125 0.375,0.1875 0.65625,0.375 0.84375,0.5625 0.5625,0.28125 1.308593,1.027344 2.339843,2.433594 0.1875,0.28125 0.375,0.65625 0.5625,1.125 0.65625,1.027344 1.027344,2.433594 1.027344,4.210938 0,0.65625 0,1.125 0,1.40625 -0.09375,0.28125 -0.183594,0.839844 -0.464844,1.496094 -0.09375,0.375 -0.28125,0.65625 -0.375,0.75 -0.1875,0.1875 -0.375,0.28125 -0.46875,0.375 -0.09375,0.09375 -0.1875,0.1875 -0.28125,0.28125 -0.09375,0.09375 -0.28125,0.09375 -0.375,0.1875 -0.1875,0.09375 -0.375,0.09375 -0.46875,0.1875 -0.09375,0.09375 -0.28125,0.183593 -0.46875,0.183593 -0.1875,0.09375 -0.371093,0.09375 -0.652343,0.1875 -0.28125,0.09375 -0.65625,0.1875 -1.125,0.28125 z M 4.960938,-11.609375 c 0.65625,0 1.3125,-0.1875 1.96875,-0.5625 1.121093,-0.65625 1.683593,-1.683594 1.683593,-3.089844 0,-0.84375 0,-1.21875 -0.09375,-1.308593 v -6.273438 l 0.28125,-6.554688 0.1875,-3.839843 1.21875,0.375 c 0.746094,0.09375 1.402344,0.1875 1.871094,0.1875 0.46875,0 0.9375,0 1.21875,0 0.277344,0.09375 1.027344,0.09375 2.339844,0.09375 l 1.683593,-0.28125 c 1.21875,-0.28125 2.527344,-0.75 3.933594,-1.40625 l 0.375,-0.1875 c 1.308594,-0.839844 2.339844,-1.683594 2.996094,-2.527344 1.121094,-1.496094 1.777344,-2.808594 1.871094,-3.835937 0.46875,-1.125 0.65625,-2.4375 0.65625,-3.839844 v -2.058594 c 0,-0.75 -0.09375,-1.40625 -0.28125,-2.0625 -0.46875,-2.152344 -1.3125,-4.210938 -2.621094,-6.179688 -0.46875,-0.746093 -0.9375,-1.308593 -1.3125,-1.683593 -1.027344,-1.40625 -2.058594,-2.339844 -3.089844,-2.808594 -0.558594,-0.46875 -1.121094,-0.84375 -1.777344,-1.03125 -1.871093,-0.9375 -3.933593,-1.402344 -6.273437,-1.402344 -1.21875,0 -2.527344,0.28125 -3.933594,0.839844 -0.09375,0 -0.1875,0 -0.28125,0.09375 -0.089843,0.09375 -0.089843,0.09375 -0.183593,0.09375 -0.65625,-0.746094 -1.59375,-1.121094 -2.71875,-1.121094 -1.121094,0 -2.058594,0.464844 -2.902344,1.308594 -0.558594,0.65625 -0.839844,1.5 -0.839844,2.433594 l 0.09375,1.03125 0.09375,0.28125 c 0.09375,0.09375 0.09375,0.28125 0.09375,0.375 0,0.09375 0,0.28125 0.09375,0.375 0,0.09375 0,0.28125 0,0.46875 0,0.183593 0,0.371093 0.09375,0.558593 0,0.1875 0,0.65625 0,1.3125 0,0.65625 0,1.125 0.09375,1.308594 0,0.28125 0,0.75 0,1.59375 0,0.84375 0,1.402344 0.089844,1.683594 0,0.28125 0,1.3125 0,2.996094 0,1.40625 0,2.714844 -0.089844,3.839844 0,6.367187 0,10.113281 -0.09375,11.234374 -0.09375,0.46875 -0.09375,0.9375 -0.09375,1.40625 l -0.28125,6.742188 v 6.925781 c 0.09375,0.1875 0.09375,0.46875 0.09375,0.75 0.09375,1.59375 0.839844,2.714844 2.058594,3.371094 0.65625,0.28125 1.21875,0.375 1.777344,0.375 z m 0,0"
           id="path220" />
      </g>
    </g>
  </g>
  <g
     fill="#bf2594"
     fill-opacity="1"
     id="g234"
     transform="translate(0,-14.954978)">
    <g
       transform="translate(584.9304,290.47342)"
       id="g232">
      <g
         id="g230">
        <path
           d="m 17.789062,-13.761719 c 0.65625,0 1.21875,-0.1875 1.871094,-0.46875 1.21875,-0.65625 1.875,-1.875 1.875,-3.558593 l -0.09375,-4.589844 c 0,-1.589844 0,-2.621094 -0.09375,-3.089844 0,-2.246094 0,-3.554688 -0.09375,-4.023438 0,-1.78125 0,-2.808593 0,-3.089843 -0.09375,-0.28125 -0.09375,-0.5625 -0.09375,-0.84375 0,-0.28125 0,-0.5625 0,-0.84375 -0.09375,-0.28125 -0.09375,-0.558594 -0.09375,-0.839844 0,-0.28125 0,-0.46875 0,-0.75 -0.09375,-0.1875 -0.09375,-0.46875 -0.09375,-0.75 0,-0.28125 0,-0.46875 0,-0.75 -0.09375,-0.277344 -0.09375,-0.464844 -0.09375,-0.652344 0,-0.1875 0,-0.375 0,-0.5625 -0.09375,-0.09375 -0.09375,-0.28125 -0.09375,-0.375 0.28125,-0.28125 0.5625,-0.5625 0.75,-0.84375 0.1875,-0.28125 0.375,-0.46875 0.5625,-0.65625 0.1875,-0.183593 0.464844,-0.652343 0.933594,-1.308593 0.28125,-0.28125 0.46875,-0.5625 0.65625,-0.84375 0.09375,-0.28125 0.28125,-0.46875 0.375,-0.65625 0.28125,-0.464844 0.5625,-0.933594 0.84375,-1.496094 0.652344,-1.03125 1.027344,-1.78125 1.214844,-2.246094 l 0.1875,-0.375 c 0.28125,-0.46875 0.46875,-0.65625 0.46875,-0.75 l 0.9375,-1.871094 c 0.28125,-0.5625 0.5625,-1.125 0.839844,-1.6875 0.1875,-0.5625 0.375,-1.121094 0.65625,-1.777344 0.46875,-0.84375 0.75,-1.5 0.84375,-1.96875 0.09375,-0.464843 0.375,-1.027343 0.65625,-1.777343 l 0.5625,-1.777344 c 0.09375,-0.28125 0.1875,-0.46875 0.1875,-0.65625 0.277343,-0.65625 0.371093,-1.21875 0.371093,-1.6875 0,-0.746094 -0.277343,-1.402344 -0.746093,-1.964844 -0.75,-1.03125 -1.78125,-1.496093 -3.089844,-1.496093 -1.6875,0 -2.902344,0.933593 -3.652344,2.808593 0,0.1875 -0.09375,0.375 -0.1875,0.558594 -0.5625,1.96875 -0.9375,2.996094 -1.03125,3.277344 -0.1875,0.28125 -0.375,0.65625 -0.46875,0.9375 -0.464844,1.21875 -0.746094,1.964843 -1.027344,2.433593 -0.1875,0.5625 -0.375,1.03125 -0.5625,1.5 -0.28125,0.46875 -0.46875,0.746094 -0.5625,1.027344 -0.09375,0.28125 -0.28125,0.46875 -0.375,0.5625 -0.09375,0.1875 -0.28125,0.5625 -0.5625,1.125 l -1.871094,3.371094 c -0.28125,0.375 -0.5625,0.746094 -0.75,1.121094 l -0.558593,0.84375 h -0.09375 l -0.375,-0.75 c -0.375,-0.933594 -0.65625,-1.496094 -0.84375,-1.683594 -0.375,-1.03125 -0.65625,-1.59375 -0.84375,-1.78125 -0.28125,-0.746094 -0.5625,-1.402344 -0.839844,-1.871094 0,-0.1875 -0.09375,-0.46875 -0.375,-0.75 -0.5625,-1.402344 -1.03125,-2.339844 -1.5,-2.902344 -0.1875,-0.28125 -0.375,-0.5625 -0.5625,-1.027343 -0.28125,-0.75 -0.558594,-1.3125 -0.839844,-1.59375 -0.28125,-0.75 -0.46875,-1.121094 -0.5625,-1.121094 -0.1875,-0.46875 -0.375,-0.84375 -0.5625,-1.125 l -0.375,-0.75 c 0,-0.1875 -0.09375,-0.375 -0.375,-0.65625 l -0.09375,-0.1875 C 7.492188,-62.917969 6.460938,-63.761719 5.054688,-63.855469 H 4.496094 c -1.125,0 -2.0625,0.46875 -2.8125,1.5 -0.464844,0.65625 -0.746094,1.308594 -0.746094,2.152344 0,0.5625 0.1875,1.21875 0.46875,1.871094 0,0.09375 0.09375,0.28125 0.277344,0.46875 0.09375,0.1875 0.1875,0.46875 0.28125,0.75 0.09375,0 0.28125,0.28125 0.46875,0.84375 0.09375,0.09375 0.1875,0.28125 0.28125,0.375 0.09375,0.1875 0.09375,0.371093 0.1875,0.464843 0.5625,1.03125 1.03125,1.96875 1.5,2.996094 0.277344,0.375 0.371094,0.65625 0.464844,0.75 0.09375,0.09375 0.09375,0.28125 0.09375,0.375 0.28125,0.375 0.5625,0.9375 0.84375,1.59375 0.09375,0.09375 0.28125,0.277344 0.375,0.558594 0.09375,0.28125 0.1875,0.46875 0.28125,0.65625 0.09375,0.28125 0.1875,0.46875 0.1875,0.5625 0.28125,0.375 0.5625,0.9375 0.84375,1.683594 0.183593,0.1875 0.464843,0.75 0.839843,1.78125 0.09375,0.09375 0.28125,0.46875 0.5625,1.027344 l 1.125,2.25 c 0.839844,1.683593 1.964844,2.902343 3.371094,3.742187 0,0.1875 0,0.375 0.09375,0.65625 0,0.28125 0,0.46875 0,0.75 0,0.28125 0,0.46875 0.08984,0.75 0,0.28125 0,0.46875 0,0.746094 0,0.28125 0,0.5625 0.09375,0.84375 0,0.28125 0,0.46875 0,0.75 0,0.28125 0,0.46875 0.09375,0.75 0,0.28125 0,1.308593 0,2.902343 0.09375,0.5625 0.09375,1.214844 0.09375,1.964844 0,0.1875 0,0.46875 0.09375,0.75 0,0.28125 0,1.308594 0,3.089844 0,1.777344 0,2.902344 0.09375,3.277344 0,0.375 0,1.214844 0,2.527344 0,1.683593 0.65625,2.808593 1.875,3.464843 0.652343,0.28125 1.214843,0.46875 1.871093,0.46875 z m 0,0"
           id="path228" />
      </g>
    </g>
  </g>
  <g
     fill="#bf2594"
     fill-opacity="1"
     id="g240"
     transform="translate(0,-14.954978)">
    <g
       transform="translate(622.28516,290.47342)"
       id="g238">
      <g
         id="g236" />
    </g>
  </g>
  <g
     fill="#bf2594"
     fill-opacity="1"
     id="g248"
     transform="translate(0,-14.954978)">
    <g
       transform="translate(645.69057,290.47342)"
       id="g246">
      <g
         id="g244">
        <path
           d="m 8.519531,-21.347656 v -4.304688 c 0.09375,-0.9375 0.09375,-2.4375 0.09375,-4.496094 0.09375,-0.65625 0.1875,-1.871093 0.1875,-3.558593 l -0.09375,-1.027344 c 0,-4.027344 0,-6.273437 -0.09375,-6.835937 0,-2.152344 0,-3.371094 0,-3.746094 -0.09375,-0.28125 -0.09375,-3.371094 -0.09375,-9.269532 0.28125,-0.28125 0.9375,-0.375 1.78125,-0.375 0.371094,0 0.652344,0 0.933594,0.09375 1.03125,0 1.875,0.09375 2.433594,0.375 0.1875,0.09375 0.375,0.09375 0.65625,0.1875 0.28125,0.09375 0.46875,0.09375 0.65625,0.1875 0.1875,0.09375 0.375,0.1875 0.5625,0.28125 0.46875,0.1875 1.121093,0.5625 1.777343,1.03125 0.28125,0.09375 0.65625,0.277344 0.9375,0.558594 0.28125,0.375 0.5625,0.75 0.75,1.125 0.28125,0.1875 0.558594,0.5625 0.746094,1.03125 l 0.09375,0.09375 c 0.375,0.464844 0.75,1.402344 1.125,2.621094 0.1875,0.46875 0.375,1.027344 0.46875,1.589844 0.28125,0.46875 0.375,1.5 0.375,3.089844 0,2.0625 -0.28125,3.839843 -0.75,5.242187 -0.09375,0.46875 -0.28125,1.21875 -0.65625,2.4375 -0.09375,0.28125 -0.1875,0.746094 -0.28125,1.214844 -0.1875,0.46875 -0.46875,1.03125 -0.746094,1.59375 -0.09375,0.09375 -0.09375,0.28125 -0.1875,0.5625 -0.09375,0.277343 -0.28125,0.558593 -0.5625,0.933593 -0.28125,0.375 -0.65625,0.84375 -1.03125,1.5 -0.1875,0.375 -0.5625,0.839844 -1.03125,1.402344 l -0.371093,0.46875 c -0.46875,0.46875 -0.75,0.75 -1.03125,1.03125 -0.28125,0.28125 -0.65625,0.5625 -0.9375,0.933594 -0.28125,0.375 -0.746094,0.75 -1.308594,1.125 -0.09375,0.09375 -0.28125,0.28125 -0.46875,0.375 -0.1875,0.1875 -0.375,0.375 -0.65625,0.46875 -0.28125,0.1875 -0.84375,0.5625 -1.683594,1.121094 z m -3.652343,7.957031 c 0.5625,0 1.125,-0.183594 1.59375,-0.464844 0.46875,0.09375 0.9375,0.1875 1.402343,0.1875 0.84375,0 1.59375,-0.1875 2.34375,-0.5625 l 0.746094,-0.375 c 1.3125,-0.5625 2.4375,-1.125 3.277344,-1.78125 1.40625,-0.839843 2.808593,-1.871093 4.027343,-2.902343 1.496094,-1.308594 2.527344,-2.339844 3.183594,-3.089844 1.589844,-1.964844 2.714844,-3.367188 3.371094,-4.398438 l 0.375,-0.5625 c 1.027344,-1.589844 1.683594,-3.089844 1.964844,-4.304687 l 0.75,-2.15625 c 0.1875,-0.65625 0.375,-1.402344 0.46875,-2.152344 l 0.09375,-0.375 c 0.183594,-0.5625 0.277344,-1.125 0.371094,-1.777344 l 0.1875,-0.75 c 0.1875,-0.9375 0.28125,-2.246093 0.28125,-4.027343 0,-1.027344 0,-1.777344 -0.09375,-2.246094 -0.09375,-0.375 -0.09375,-0.75 -0.1875,-1.03125 -0.28125,-1.402344 -0.558594,-2.527344 -0.933594,-3.460938 -0.5625,-1.78125 -1.21875,-3.089844 -1.875,-4.027344 -0.375,-0.75 -0.746094,-1.3125 -1.121094,-1.78125 -0.375,-0.371093 -0.65625,-0.652343 -0.9375,-0.933593 -0.84375,-1.03125 -1.683594,-1.78125 -2.527344,-2.246094 -1.78125,-1.3125 -3.746094,-2.15625 -5.804687,-2.625 l -0.46875,-0.09375 c -1.40625,-0.464844 -2.714844,-0.652344 -3.746094,-0.652344 -1.777344,0 -2.996094,0.09375 -3.558594,0.1875 -0.652343,-1.21875 -1.777343,-1.875 -3.277343,-1.875 -1.027344,0 -1.871094,0.28125 -2.621094,0.9375 -0.746094,0.65625 -1.121094,1.683594 -1.121094,2.996094 v 13.855469 c 0.09375,0.46875 0.09375,1.96875 0.09375,4.402344 0.09375,0.5625 0.09375,2.808593 0.09375,6.835937 l 0.09375,0.933594 -0.09375,1.125 c 0,1.777343 0,2.808593 0,3.183593 -0.09375,0.375 -0.09375,0.84375 -0.09375,1.402344 0,0.5625 0,1.3125 -0.09375,2.25 l -0.09375,8.332032 c 0,1.589843 0.652344,2.714843 1.964844,3.464843 0.65625,0.375 1.3125,0.558594 1.964844,0.558594 z m 0,0"
           id="path242" />
      </g>
    </g>
  </g>
  <g
     fill="#bf2594"
     fill-opacity="1"
     id="g256"
     transform="translate(0,-14.954978)">
    <g
       transform="translate(680.61121,290.47342)"
       id="g254">
      <g
         id="g252">
        <path
           d="m 19.101562,-36.140625 h -7.117187 l 0.9375,-3.746094 c 0.09375,-0.28125 0.28125,-0.746093 0.375,-1.402343 l 0.652344,-2.621094 0.5625,-1.875 1.03125,-3.558594 c 0,0.09375 0,0.1875 0.09375,0.1875 0,0.09375 0,0.09375 0.09375,0.1875 0.09375,0.09375 0.1875,0.46875 0.28125,0.9375 0.09375,0.5625 0.1875,0.9375 0.1875,1.125 0.09375,0 0.28125,0.652344 0.558593,1.871094 0.09375,0.1875 0.28125,0.46875 0.375,0.9375 0.09375,0.46875 0.1875,0.839844 0.1875,1.121094 0.28125,0.75 0.5625,1.78125 0.84375,2.996093 0.09375,0.375 0.1875,0.84375 0.375,1.5 0.1875,0.65625 0.28125,1.121094 0.375,1.214844 0.09375,0.1875 0.09375,0.5625 0.1875,1.125 z M 9.082031,-20.785156 c 0.09375,-0.09375 0.09375,-0.1875 0.1875,-0.28125 0,-0.09375 0,-0.1875 0,-0.375 0,-0.09375 0.09375,-0.28125 0.1875,-0.5625 0.09375,-0.1875 0.1875,-0.652344 0.28125,-1.496094 0.09375,-0.46875 0.28125,-1.875 0.46875,-4.121094 l 0.09375,-1.027344 h 10.578125 l 2.433594,7.769532 c 0.1875,0.28125 0.28125,0.65625 0.375,1.125 0.65625,1.683594 1.871094,2.527344 3.652344,2.621094 1.125,0 2.058594,-0.375 2.714844,-1.125 0.65625,-0.75 1.03125,-1.589844 1.03125,-2.433594 0,-0.46875 -0.1875,-1.21875 -0.46875,-2.152344 l -0.65625,-1.875 c -0.28125,-1.027344 -0.5625,-1.871094 -0.75,-2.527344 -0.1875,-0.5625 -0.375,-1.03125 -0.46875,-1.308594 -0.09375,-0.28125 -0.1875,-0.46875 -0.1875,-0.65625 -0.08984,-0.1875 -0.183594,-0.375 -0.277344,-0.65625 0.652344,-0.65625 1.027344,-1.5 1.027344,-2.339843 0,-0.375 -0.09375,-0.75 -0.1875,-1.125 -0.28125,-1.496094 -1.027344,-2.433594 -2.339844,-2.714844 0,-0.375 -0.09375,-0.65625 -0.1875,-0.9375 0,-0.375 0,-0.746094 -0.09375,-1.121094 -0.09375,-0.375 -0.1875,-0.65625 -0.28125,-0.9375 -0.09375,-0.1875 -0.28125,-0.84375 -0.5625,-1.871093 C 25,-43.722656 24.53125,-45.410156 24.4375,-45.972656 24.25,-46.535156 24.0625,-47.28125 23.78125,-48.125 23.5,-48.96875 23.3125,-49.53125 23.21875,-49.996094 c -0.09375,-0.46875 -0.1875,-0.75 -0.28125,-1.03125 -0.09375,-0.28125 -0.1875,-0.5625 -0.28125,-1.03125 -0.09375,-0.46875 -0.277344,-0.652344 -0.371094,-0.746094 -0.09375,-0.46875 -0.28125,-1.40625 -0.65625,-2.808593 -0.09375,-0.28125 -0.09375,-0.5625 -0.09375,-0.65625 0,-0.09375 0,-0.28125 0,-0.46875 -0.09375,-0.09375 -0.09375,-0.28125 -0.09375,-0.46875 -0.09375,-0.1875 -0.09375,-0.28125 -0.09375,-0.375 -0.09375,-0.09375 -0.09375,-0.09375 -0.09375,-0.1875 -0.09375,-0.65625 -0.1875,-1.121094 -0.375,-1.496094 0,-0.46875 -0.09375,-0.9375 -0.1875,-1.21875 0,-0.46875 -0.09375,-0.9375 -0.1875,-1.214844 -0.1875,-1.03125 -0.46875,-1.875 -0.84375,-2.625 -0.746094,-1.402343 -1.871094,-2.152343 -3.273437,-2.152343 -0.09375,-0.09375 -0.28125,-0.09375 -0.46875,-0.09375 -1.21875,0 -2.15625,0.46875 -2.996094,1.5 l -0.1875,0.375 c -0.28125,0.371093 -0.5625,0.746093 -0.65625,1.027343 -0.09375,0.375 -0.1875,0.65625 -0.28125,0.9375 -0.09375,0.28125 -0.1875,0.5625 -0.28125,0.84375 -0.09375,0.28125 -0.28125,0.464844 -0.375,0.746094 -0.09375,0.28125 -0.46875,1.40625 -0.933594,3.277344 -0.09375,0.5625 -0.28125,1.21875 -0.46875,1.875 -0.28125,0.652343 -0.65625,2.058593 -1.21875,4.023437 l -0.65625,2.0625 c 0,0.1875 -0.09375,0.464844 -0.1875,0.933594 -0.09375,0.46875 -0.183593,0.84375 -0.277343,1.125 -0.09375,0.28125 -0.1875,0.65625 -0.28125,0.9375 -0.09375,0.371094 -0.28125,0.746094 -0.375,1.121094 l -1.3125,4.964844 -0.1875,1.121093 c -0.375,1.125 -0.5625,1.78125 -0.5625,1.96875 -0.09375,0.464844 -0.183594,1.027344 -0.371094,1.589844 -1.21875,0 -2.0625,0.46875 -2.71875,1.5 -0.464844,0.746094 -0.652344,1.496094 -0.652344,2.339844 0,1.496093 0.652344,2.621093 1.871094,3.277343 0,0.746094 0,1.214844 -0.09375,1.308594 -0.09375,0.09375 -0.09375,0.28125 -0.09375,0.46875 0,0.1875 0,0.375 0,0.65625 -0.09375,0.28125 -0.09375,0.5625 -0.09375,0.75 -0.09375,0.28125 -0.09375,0.464844 -0.09375,0.652344 -0.09375,0.1875 -0.09375,0.375 -0.09375,0.5625 0,0.1875 -0.09375,0.375 -0.1875,0.65625 l -0.28125,1.496094 c -0.09375,0 -0.09375,0.09375 -0.09375,0.28125 l -0.09375,1.21875 c 0,0.75 0.1875,1.40625 0.65625,2.058594 0.9375,1.03125 1.96875,1.5 3.183594,1.5 0.65625,0 1.21875,-0.1875 1.875,-0.5625 0.933593,-0.65625 1.496093,-1.5 1.683593,-2.714844 z m 0,0"
           id="path250" />
      </g>
    </g>
  </g>
  <g
     fill="#bf2594"
     fill-opacity="1"
     id="g264"
     transform="translate(0,-14.954978)">
    <g
       transform="translate(717.21699,290.47342)"
       id="g262">
      <g
         id="g260">
        <path
           d="m 17.789062,-13.761719 c 0.65625,0 1.21875,-0.1875 1.871094,-0.46875 1.21875,-0.65625 1.875,-1.875 1.875,-3.558593 l -0.09375,-4.589844 c 0,-1.589844 0,-2.621094 -0.09375,-3.089844 0,-2.246094 0,-3.554688 -0.09375,-4.023438 0,-1.78125 0,-2.808593 0,-3.089843 -0.09375,-0.28125 -0.09375,-0.5625 -0.09375,-0.84375 0,-0.28125 0,-0.5625 0,-0.84375 -0.09375,-0.28125 -0.09375,-0.558594 -0.09375,-0.839844 0,-0.28125 0,-0.46875 0,-0.75 -0.09375,-0.1875 -0.09375,-0.46875 -0.09375,-0.75 0,-0.28125 0,-0.46875 0,-0.75 -0.09375,-0.277344 -0.09375,-0.464844 -0.09375,-0.652344 0,-0.1875 0,-0.375 0,-0.5625 -0.09375,-0.09375 -0.09375,-0.28125 -0.09375,-0.375 0.28125,-0.28125 0.5625,-0.5625 0.75,-0.84375 0.1875,-0.28125 0.375,-0.46875 0.5625,-0.65625 0.1875,-0.183593 0.464844,-0.652343 0.933594,-1.308593 0.28125,-0.28125 0.46875,-0.5625 0.65625,-0.84375 0.09375,-0.28125 0.28125,-0.46875 0.375,-0.65625 0.28125,-0.464844 0.5625,-0.933594 0.84375,-1.496094 0.652344,-1.03125 1.027344,-1.78125 1.214844,-2.246094 l 0.1875,-0.375 c 0.28125,-0.46875 0.46875,-0.65625 0.46875,-0.75 l 0.9375,-1.871094 c 0.28125,-0.5625 0.5625,-1.125 0.839844,-1.6875 0.1875,-0.5625 0.375,-1.121094 0.65625,-1.777344 0.46875,-0.84375 0.75,-1.5 0.84375,-1.96875 0.09375,-0.464843 0.375,-1.027343 0.65625,-1.777343 l 0.5625,-1.777344 c 0.09375,-0.28125 0.1875,-0.46875 0.1875,-0.65625 0.277343,-0.65625 0.371093,-1.21875 0.371093,-1.6875 0,-0.746094 -0.277343,-1.402344 -0.746093,-1.964844 -0.75,-1.03125 -1.78125,-1.496093 -3.089844,-1.496093 -1.6875,0 -2.902344,0.933593 -3.652344,2.808593 0,0.1875 -0.09375,0.375 -0.1875,0.558594 -0.5625,1.96875 -0.9375,2.996094 -1.03125,3.277344 -0.1875,0.28125 -0.375,0.65625 -0.46875,0.9375 -0.464844,1.21875 -0.746094,1.964843 -1.027344,2.433593 -0.1875,0.5625 -0.375,1.03125 -0.5625,1.5 -0.28125,0.46875 -0.46875,0.746094 -0.5625,1.027344 -0.09375,0.28125 -0.28125,0.46875 -0.375,0.5625 -0.09375,0.1875 -0.28125,0.5625 -0.5625,1.125 l -1.871094,3.371094 c -0.28125,0.375 -0.5625,0.746094 -0.75,1.121094 l -0.558593,0.84375 h -0.09375 l -0.375,-0.75 c -0.375,-0.933594 -0.65625,-1.496094 -0.84375,-1.683594 -0.375,-1.03125 -0.65625,-1.59375 -0.84375,-1.78125 -0.28125,-0.746094 -0.5625,-1.402344 -0.839844,-1.871094 0,-0.1875 -0.09375,-0.46875 -0.375,-0.75 -0.5625,-1.402344 -1.03125,-2.339844 -1.5,-2.902344 -0.1875,-0.28125 -0.375,-0.5625 -0.5625,-1.027343 -0.28125,-0.75 -0.558594,-1.3125 -0.839844,-1.59375 -0.28125,-0.75 -0.46875,-1.121094 -0.5625,-1.121094 -0.1875,-0.46875 -0.375,-0.84375 -0.5625,-1.125 l -0.375,-0.75 c 0,-0.1875 -0.09375,-0.375 -0.375,-0.65625 l -0.09375,-0.1875 C 7.492188,-62.917969 6.460938,-63.761719 5.054688,-63.855469 H 4.496094 c -1.125,0 -2.0625,0.46875 -2.8125,1.5 -0.464844,0.65625 -0.746094,1.308594 -0.746094,2.152344 0,0.5625 0.1875,1.21875 0.46875,1.871094 0,0.09375 0.09375,0.28125 0.277344,0.46875 0.09375,0.1875 0.1875,0.46875 0.28125,0.75 0.09375,0 0.28125,0.28125 0.46875,0.84375 0.09375,0.09375 0.1875,0.28125 0.28125,0.375 0.09375,0.1875 0.09375,0.371093 0.1875,0.464843 0.5625,1.03125 1.03125,1.96875 1.5,2.996094 0.277344,0.375 0.371094,0.65625 0.464844,0.75 0.09375,0.09375 0.09375,0.28125 0.09375,0.375 0.28125,0.375 0.5625,0.9375 0.84375,1.59375 0.09375,0.09375 0.28125,0.277344 0.375,0.558594 0.09375,0.28125 0.1875,0.46875 0.28125,0.65625 0.09375,0.28125 0.1875,0.46875 0.1875,0.5625 0.28125,0.375 0.5625,0.9375 0.84375,1.683594 0.183593,0.1875 0.464843,0.75 0.839843,1.78125 0.09375,0.09375 0.28125,0.46875 0.5625,1.027344 l 1.125,2.25 c 0.839844,1.683593 1.964844,2.902343 3.371094,3.742187 0,0.1875 0,0.375 0.09375,0.65625 0,0.28125 0,0.46875 0,0.75 0,0.28125 0,0.46875 0.08984,0.75 0,0.28125 0,0.46875 0,0.746094 0,0.28125 0,0.5625 0.09375,0.84375 0,0.28125 0,0.46875 0,0.75 0,0.28125 0,0.46875 0.09375,0.75 0,0.28125 0,1.308593 0,2.902343 0.09375,0.5625 0.09375,1.214844 0.09375,1.964844 0,0.1875 0,0.46875 0.09375,0.75 0,0.28125 0,1.308594 0,3.089844 0,1.777344 0,2.902344 0.09375,3.277344 0,0.375 0,1.214844 0,2.527344 0,1.683593 0.65625,2.808593 1.875,3.464843 0.652343,0.28125 1.214843,0.46875 1.871093,0.46875 z m 0,0"
           id="path258" />
      </g>
    </g>
  </g>
</svg>
